<?xml version="1.0" encoding="utf-8"?>
<!-- Generator: Adobe Illustrator 18.1.1, SVG Export Plug-In . SVG Version: 6.00 Build 0)  -->
<svg version="1.1" xmlns="http://www.w3.org/2000/svg" xmlns:xlink="http://www.w3.org/1999/xlink" x="0px" y="0px"
	 viewBox="0 0 84.2 307" enable-background="new 0 0 84.2 307" xml:space="preserve">
<g id="Window_1">
</g>
<g id="Window_2">
</g>
<g id="Window_3">
</g>
<g id="Window_4">
</g>
<g id="Window_5">
</g>
<g id="Window_6">
</g>
<g id="Window_7">
</g>
<g id="Window_8">
</g>
<g id="Window_9">
</g>
<g id="Window_10">
</g>
<g id="Window_11">
	<polyline fill="#040303" points="84.2,18.5 41.6,0 0.3,18.5 	"/>
	<polyline fill="none" stroke="#FFFFFF" stroke-width="0.9921" stroke-miterlimit="10" points="77,19 41.6,3.4 5.8,19 	"/>
	<polygon fill="#FFFFFF" points="10.8,18.5 41.4,4.9 72,18.5 	"/>
	<rect x="2.5" y="140.1" fill="#040303" width="78.1" height="9.3"/>
	<rect x="5.7" y="28.7" fill="none" stroke="#040303" stroke-width="7.0866" stroke-miterlimit="10" width="72.4" height="120.7"/>
	<rect x="11.5" y="35" fill="none" stroke="#040303" stroke-width="2.8346" stroke-miterlimit="10" width="60.8" height="111.8"/>
	<rect x="11.5" y="37.9" fill="#040303" width="60.8" height="7.5"/>
	<rect x="11.5" y="92.8" fill="#040303" width="60.8" height="3"/>
	<line fill="none" stroke="#040303" stroke-width="2.126" stroke-miterlimit="10" x1="31.8" y1="45.4" x2="31.8" y2="141.5"/>
	<line fill="none" stroke="#040303" stroke-width="2.126" stroke-miterlimit="10" x1="51" y1="44.8" x2="51" y2="142.1"/>
	<line fill="none" stroke="#040303" stroke-width="2.126" stroke-miterlimit="10" x1="11.5" y1="69.3" x2="72.3" y2="69.3"/>
	<line fill="none" stroke="#040303" stroke-width="2.126" stroke-miterlimit="10" x1="12.4" y1="121.4" x2="71.7" y2="121.4"/>
	<polygon fill="#040303" points="41.7,19.2 84.2,19.2 82.1,24.4 41.7,24.3 2,24.4 0,19.2 	"/>
	<rect x="14" y="46.3" fill="#040303" width="15.7" height="21"/>
	<rect x="34" y="46.3" fill="#040303" width="14.8" height="21"/>
	<rect x="53.1" y="46.3" fill="#040303" width="16.6" height="21"/>
	<rect x="14" y="71.3" fill="#040303" width="15.7" height="20.5"/>
	<rect x="34" y="71.3" fill="#040303" width="14.8" height="20.5"/>
	<rect x="53.1" y="71.3" fill="#040303" width="16.6" height="20.5"/>
	<rect x="14" y="96.9" fill="#040303" width="15.7" height="22.5"/>
	<rect x="34" y="96.9" fill="#040303" width="14.8" height="22.5"/>
	<rect x="53.1" y="96.9" fill="#040303" width="16.6" height="22.5"/>
	<rect x="14" y="123.3" fill="#040303" width="15.7" height="15.8"/>
	<rect x="34" y="123.2" fill="#040303" width="14.8" height="16.1"/>
	<rect x="53.1" y="123.2" fill="#040303" width="16.6" height="16.1"/>
	<polyline fill="#040303" points="84.2,172.5 41.6,154 0.3,172.5 	"/>
	<polyline fill="none" stroke="#FFFFFF" stroke-width="0.9921" stroke-miterlimit="10" points="77,173 41.6,157.4 5.9,173 	"/>
	<polygon fill="#FFFFFF" points="10.8,172.5 41.4,158.9 72,172.5 	"/>
	<rect x="2.5" y="294.1" fill="#040303" width="78.1" height="9.3"/>
	<rect x="5.7" y="182.7" fill="none" stroke="#040303" stroke-width="7.0866" stroke-miterlimit="10" width="72.4" height="120.7"/>
	<rect x="11.5" y="189" fill="none" stroke="#040303" stroke-width="2.8346" stroke-miterlimit="10" width="60.8" height="111.8"/>
	<rect x="11.5" y="191.9" fill="#040303" width="60.8" height="7.5"/>
	<rect x="11.5" y="246.8" fill="#040303" width="60.8" height="3"/>
	<line fill="none" stroke="#040303" stroke-width="2.126" stroke-miterlimit="10" x1="31.8" y1="199.4" x2="31.8" y2="295.5"/>
	<line fill="none" stroke="#040303" stroke-width="2.126" stroke-miterlimit="10" x1="51" y1="198.8" x2="51" y2="296.1"/>
	<line fill="none" stroke="#040303" stroke-width="2.126" stroke-miterlimit="10" x1="11.5" y1="223.3" x2="72.3" y2="223.3"/>
	<line fill="none" stroke="#040303" stroke-width="2.126" stroke-miterlimit="10" x1="12.4" y1="275.4" x2="71.7" y2="275.4"/>
	<polygon fill="#040303" points="41.7,173.2 84.2,173.2 82.1,178.4 41.7,178.3 2,178.3 0,173.2 	"/>
</g>
<g id="Window_12">
</g>
</svg>
