<?xml version="1.0" encoding="utf-8"?>
<!-- Generator: Adobe Illustrator 18.1.1, SVG Export Plug-In . SVG Version: 6.00 Build 0)  -->
<svg version="1.1" xmlns="http://www.w3.org/2000/svg" xmlns:xlink="http://www.w3.org/1999/xlink" x="0px" y="0px"
	 viewBox="0 0 77 307" enable-background="new 0 0 77 307" xml:space="preserve">
<g id="Window_1">
</g>
<g id="Window_2">
	<path fill="#010101" d="M70.8,15.1c-33.7-10.6-64.9,0-64.9,0v124.7h65.4C71.3,139.7,71.3,39,70.8,15.1z"/>
	<path fill="#010101" d="M71.4,14.1C37,3.3,5,14.1,5,14.1L0,5.5c0,0,36.9-12.5,76.7,0L71.4,14.1"/>
	<path fill="#FFFEFE" d="M65.7,134.4H11.4v-11.5V19.4c0,0,26.2-8.5,54.2,0.3L65.7,134.4z"/>
	<line fill="none" stroke="#010101" stroke-width="4.252" stroke-miterlimit="10" x1="11.4" y1="79.6" x2="68.2" y2="79.6"/>
	<line fill="none" stroke="#010101" stroke-width="2.8346" stroke-miterlimit="10" x1="11.4" y1="49.1" x2="66" y2="49.1"/>
	<line fill="none" stroke="#010101" stroke-width="2.8346" stroke-miterlimit="10" x1="10.3" y1="109.6" x2="68.2" y2="109.6"/>
	<rect x="0.1" y="140.9" fill="#010101" width="76.9" height="6.8"/>
	<polyline fill="#010101" points="4.3,151.3 4.3,153 11.3,153 11.3,148.2 0.1,148.2 4.3,151.3 	"/>
	<polyline fill="#010101" points="72.8,151.3 72.8,153 65.9,153 65.9,148.2 77,148.2 72.8,151.3 	"/>
	<line fill="none" stroke="#010101" stroke-width="2.8346" stroke-miterlimit="10" x1="28.1" y1="15.7" x2="28.1" y2="134.4"/>
	<line fill="none" stroke="#010101" stroke-width="2.8346" stroke-miterlimit="10" x1="47.9" y1="15.7" x2="47.9" y2="134.4"/>
	<rect x="12.3" y="51.6" fill="#010101" width="13.5" height="24.9"/>
	<rect x="12.3" y="82.6" fill="#010101" width="13.5" height="24.6"/>
	<rect x="50.3" y="51.5" fill="#010101" width="14.5" height="25.1"/>
	<rect x="50.3" y="82.6" fill="#010101" width="14.5" height="24.6"/>
	<rect x="30.5" y="51.6" fill="#010101" width="15.1" height="24.9"/>
	<path fill="#010101" d="M25.8,17.6v29.2H12.4V20.1C12.4,20.1,18,17.6,25.8,17.6"/>
	<path fill="#010101" d="M50.3,17.7v29.1h14.5V20.2C64.8,20.2,58.7,17.8,50.3,17.7"/>
	<polyline fill="#010101" points="45.6,17.6 45.6,46.8 30.5,46.8 30.5,17.6 	"/>
	<path fill="#010101" d="M45.6,20.2H30.5v-3.1c0,0,6.4-1.4,15.1,0.2"/>
	<rect x="30.5" y="82.6" fill="#010101" width="15.1" height="24.6"/>
	<rect x="12.3" y="111.9" fill="#010101" width="13.3" height="21.5"/>
	<rect x="50.3" y="111.9" fill="#010101" width="14.5" height="21.4"/>
	<rect x="30.5" y="111.9" fill="#010101" width="15.1" height="21.4"/>
	<path fill="#010101" d="M70.8,169.1c-33.7-10.6-64.9,0-64.9,0v124.7h65.4C71.3,293.8,71.3,193,70.8,169.1z"/>
	<path fill="#010101" d="M71.4,168.1c-34.4-10.8-66.4,0-66.4,0l-5-8.6c0,0,36.9-12.5,76.7,0L71.4,168.1"/>
	<path fill="#FFFEFE" d="M65.7,288.4H11.4v-11.5V173.4c0,0,26.2-8.5,54.2,0.3L65.7,288.4z"/>
	<line fill="none" stroke="#010101" stroke-width="4.252" stroke-miterlimit="10" x1="11.4" y1="233.6" x2="68.2" y2="233.6"/>
	<line fill="none" stroke="#010101" stroke-width="2.8346" stroke-miterlimit="10" x1="11.4" y1="203.2" x2="66" y2="203.2"/>
	<line fill="none" stroke="#010101" stroke-width="2.8346" stroke-miterlimit="10" x1="10.3" y1="263.6" x2="68.2" y2="263.6"/>
	<rect x="0.1" y="295" fill="#010101" width="76.9" height="6.8"/>
	<polyline fill="#010101" points="4.3,305.4 4.3,307 11.3,307 11.3,302.2 0.1,302.2 4.3,305.4 	"/>
	<polyline fill="#010101" points="72.8,305.4 72.8,307 65.9,307 65.9,302.2 77,302.2 72.8,305.4 	"/>
	<line fill="none" stroke="#010101" stroke-width="2.8346" stroke-miterlimit="10" x1="28.1" y1="169.8" x2="28.1" y2="288.4"/>
	<line fill="none" stroke="#010101" stroke-width="2.8346" stroke-miterlimit="10" x1="47.9" y1="169.8" x2="47.9" y2="288.4"/>
</g>
<g id="Window_3">
</g>
<g id="Window_4">
</g>
<g id="Window_5">
</g>
<g id="Window_6">
</g>
<g id="Window_7">
</g>
<g id="Window_8">
</g>
<g id="Window_9">
</g>
<g id="Window_10">
</g>
<g id="Window_11">
</g>
<g id="Window_12">
</g>
</svg>
