<?xml version="1.0" encoding="utf-8"?>
<!-- Generator: Adobe Illustrator 18.1.1, SVG Export Plug-In . SVG Version: 6.00 Build 0)  -->
<svg version="1.1" xmlns="http://www.w3.org/2000/svg" xmlns:xlink="http://www.w3.org/1999/xlink" x="0px" y="0px"
	 viewBox="0 0 101.4 307" enable-background="new 0 0 101.4 307" xml:space="preserve">
<g id="Window_1">
</g>
<g id="Window_2">
</g>
<g id="Window_3">
</g>
<g id="Window_4">
</g>
<g id="Window_5">
</g>
<g id="Window_6">
</g>
<g id="Window_7">
	<rect x="12.4" y="6.8" fill="#010101" width="15.6" height="20.1"/>
	<rect x="32.4" y="6.8" fill="#010101" width="15.6" height="20.1"/>
	<rect x="52.3" y="6.8" fill="#010101" width="15.6" height="20.1"/>
	<rect x="72.4" y="6.8" fill="#010101" width="16.3" height="20.1"/>
	<rect x="12.5" y="30.8" fill="#010101" width="15.6" height="24.2"/>
	<rect x="32.6" y="30.8" fill="#010101" width="15.6" height="24.2"/>
	<rect x="52.4" y="30.8" fill="#010101" width="15.6" height="24.2"/>
	<rect x="72.5" y="30.8" fill="#010101" width="16.3" height="24.2"/>
	<rect x="12.4" y="62.8" fill="#010101" width="15.6" height="21.8"/>
	<rect x="32.4" y="62.8" fill="#010101" width="15.6" height="21.8"/>
	<rect x="52.3" y="62.8" fill="#010101" width="15.6" height="21.8"/>
	<rect x="72.4" y="62.8" fill="#010101" width="16.3" height="21.8"/>
	<rect x="12.5" y="88.5" fill="#010101" width="15.6" height="23.8"/>
	<rect x="32.6" y="88.5" fill="#010101" width="15.6" height="23.8"/>
	<rect x="52.4" y="88.5" fill="#010101" width="15.6" height="23.8"/>
	<rect x="72.6" y="88.5" fill="#010101" width="16.3" height="23.8"/>
	<rect x="12.5" y="115.8" fill="#010101" width="15.6" height="20.9"/>
	<rect x="32.6" y="115.8" fill="#010101" width="15.6" height="20.9"/>
	<rect x="52.4" y="115.8" fill="#010101" width="15.6" height="20.9"/>
	<rect x="72.6" y="115.8" fill="#010101" width="16.3" height="20.9"/>
	<rect x="8.1" y="2.8" fill="none" stroke="#010101" stroke-width="5.6693" stroke-miterlimit="10" width="84.6" height="137.4"/>
	<rect x="0" y="144.2" fill="#010101" width="101.4" height="8.8"/>
	<line fill="none" stroke="#010101" stroke-width="5.6693" stroke-miterlimit="10" x1="8.1" y1="58.8" x2="92.8" y2="58.8"/>
	<line fill="none" stroke="#010101" stroke-width="2.126" stroke-miterlimit="10" x1="8.1" y1="28.9" x2="92.8" y2="28.9"/>
	<line fill="none" stroke="#010101" stroke-width="2.126" stroke-miterlimit="10" x1="5.5" y1="86.4" x2="90.1" y2="86.4"/>
	<line fill="none" stroke="#010101" stroke-width="2.126" stroke-miterlimit="10" x1="5.5" y1="114.2" x2="90.1" y2="114.2"/>
	<line fill="none" stroke="#010101" stroke-width="2.126" stroke-miterlimit="10" x1="30.4" y1="2.8" x2="30.4" y2="140"/>
	<line fill="none" stroke="#010101" stroke-width="2.126" stroke-miterlimit="10" x1="50.4" y1="2.8" x2="50.7" y2="140.2"/>
	<line fill="none" stroke="#010101" stroke-width="2.126" stroke-miterlimit="10" x1="70.1" y1="2.7" x2="70.1" y2="140.1"/>
	<rect x="8.1" y="156.9" fill="none" stroke="#010101" stroke-width="5.6693" stroke-miterlimit="10" width="84.6" height="137.4"/>
	<rect x="0" y="298.2" fill="#010101" width="101.4" height="8.8"/>
	<line fill="none" stroke="#010101" stroke-width="5.6693" stroke-miterlimit="10" x1="8.1" y1="212.9" x2="92.7" y2="212.9"/>
	<line fill="none" stroke="#010101" stroke-width="2.126" stroke-miterlimit="10" x1="8.1" y1="182.9" x2="92.7" y2="182.9"/>
	<line fill="none" stroke="#010101" stroke-width="2.126" stroke-miterlimit="10" x1="5.4" y1="240.4" x2="90.1" y2="240.4"/>
	<line fill="none" stroke="#010101" stroke-width="2.126" stroke-miterlimit="10" x1="5.4" y1="268.2" x2="90.1" y2="268.2"/>
	<line fill="none" stroke="#010101" stroke-width="2.126" stroke-miterlimit="10" x1="30.4" y1="156.9" x2="30.4" y2="294"/>
	<line fill="none" stroke="#010101" stroke-width="2.126" stroke-miterlimit="10" x1="50.4" y1="156.9" x2="50.7" y2="294.3"/>
	<line fill="none" stroke="#010101" stroke-width="2.126" stroke-miterlimit="10" x1="70.1" y1="156.7" x2="70.1" y2="294.1"/>
</g>
<g id="Window_8">
</g>
<g id="Window_9">
</g>
<g id="Window_10">
</g>
<g id="Window_11">
</g>
<g id="Window_12">
</g>
</svg>
