<?xml version="1.0" encoding="utf-8"?>
<!-- Generator: Adobe Illustrator 18.1.1, SVG Export Plug-In . SVG Version: 6.00 Build 0)  -->
<svg version="1.1" xmlns="http://www.w3.org/2000/svg" xmlns:xlink="http://www.w3.org/1999/xlink" x="0px" y="0px"
	 viewBox="0 0 75.8 307" enable-background="new 0 0 75.8 307" xml:space="preserve">
<g id="Window_1">
	<rect x="8.7" y="27.4" fill="none" stroke="#000000" stroke-width="8.5039" stroke-miterlimit="10" width="59.5" height="121.3"/>
	<polygon points="0,16.5 3.8,22 72.8,22 75.8,16.5 	"/>
	<path d="M0.8,15.5c0,0,12-16.1,37.7-15.5s35.7,15.5,35.7,15.5H0.8z"/>
	<path d="M14.5,15.7c0,0,8.9-7.3,23.4-7.3s24.2,7.3,24.2,7.3H14.5z"/>
	<path stroke="#FFFFFF" stroke-miterlimit="10" d="M3.8,16c0,0,10.9-14.8,34.1-14.6S72.4,16,72.4,16H3.8z"/>
	<line stroke="#010101" stroke-width="5.6693" stroke-miterlimit="10" x1="15.9" y1="37.3" x2="62.5" y2="37.3"/>
	<rect x="15.9" y="35.1" fill="none" stroke="#000000" stroke-width="2.8346" stroke-miterlimit="10" width="45.4" height="113.6"/>
	<line fill="none" stroke="#010101" stroke-width="5.6693" stroke-miterlimit="10" x1="17.1" y1="91.9" x2="61.3" y2="91.9"/>
	<line fill="none" stroke="#010101" stroke-width="2.8346" stroke-miterlimit="10" x1="30.8" y1="36.7" x2="30.8" y2="90.7"/>
	<path stroke="#010101" stroke-width="4.252" stroke-miterlimit="10" d="M46.2,91.9"/>
	<path stroke="#010101" stroke-width="4.252" stroke-miterlimit="10" d="M45.6,36.7"/>
	<line stroke="#010101" stroke-width="4.252" stroke-miterlimit="10" x1="15.3" y1="58.7" x2="60.7" y2="58.7"/>
	<line fill="none" stroke="#010101" stroke-width="2.8346" stroke-miterlimit="10" x1="15.3" y1="74.8" x2="60.7" y2="74.8"/>
	<line fill="none" stroke="#010101" stroke-width="2.8346" stroke-miterlimit="10" x1="16.5" y1="109.5" x2="60.7" y2="109.5"/>
	<line fill="none" stroke="#010101" stroke-width="2.8346" stroke-miterlimit="10" x1="15.3" y1="127.4" x2="61.5" y2="127.4"/>
	<line fill="none" stroke="#010101" stroke-width="2.8346" stroke-miterlimit="10" x1="30.8" y1="91.9" x2="30.8" y2="145"/>
	<line fill="none" stroke="#010101" stroke-width="2.8346" stroke-miterlimit="10" x1="45.6" y1="38.9" x2="45.6" y2="146.4"/>
	<rect x="18" y="40.9" width="10.8" height="15"/>
	<rect x="32.8" y="40.9" width="10.7" height="15"/>
	<rect x="47.5" y="40.9" width="11.7" height="15"/>
	<rect x="18" y="61.3" width="10.8" height="11.6"/>
	<rect x="32.8" y="61.3" width="10.7" height="11.6"/>
	<rect x="47.5" y="61.3" width="11.7" height="11.6"/>
	<rect x="18" y="76.8" width="10.8" height="11.7"/>
	<rect x="32.8" y="76.8" width="10.7" height="11.7"/>
	<rect x="47.5" y="76.8" width="11.7" height="11.7"/>
	<rect x="18" y="95.3" width="10.8" height="12.2"/>
	<rect x="32.8" y="95.3" width="10.7" height="12.2"/>
	<rect x="47.5" y="95.3" width="11.7" height="12.2"/>
	<rect x="18" y="111.6" width="10.8" height="13.8"/>
	<rect x="32.8" y="111.6" width="10.7" height="13.8"/>
	<rect x="47.5" y="111.6" width="11.7" height="13.8"/>
	<rect x="18" y="129.5" width="10.8" height="14.4"/>
	<rect x="32.8" y="129.5" width="10.7" height="14.4"/>
	<rect x="47.5" y="129.5" width="11.7" height="14.4"/>
	<rect x="8.7" y="181.4" fill="none" stroke="#040303" stroke-width="8.5039" stroke-miterlimit="10" width="59.5" height="121.3"/>
	<polygon fill="#040303" points="0,170.5 3.8,176 72.8,176 75.8,170.5 	"/>
	<path fill="#040303" d="M0.8,169.5c0,0,12-16.1,37.7-15.5c25.7,0.6,35.7,15.5,35.7,15.5H0.8z"/>
	<path fill="#FFFFFF" d="M14.5,169.7c0,0,8.9-7.3,23.4-7.3s24.2,7.3,24.2,7.3H14.5z"/>
	<path fill="#FFFFFF" d="M14.7,15.7c0,0,8.9-7.3,23.4-7.3s24.2,7.3,24.2,7.3H14.7z"/>
	<path fill="none" stroke="#FFFFFF" stroke-miterlimit="10" d="M3.8,170c0,0,10.9-14.8,34.1-14.6S72.4,170,72.4,170H3.8z"/>
	<line fill="none" stroke="#010101" stroke-width="5.6693" stroke-miterlimit="10" x1="15.9" y1="191.3" x2="62.5" y2="191.3"/>
	
		<rect x="15.9" y="189.1" fill="none" stroke="#010101" stroke-width="2.8346" stroke-miterlimit="10" width="45.4" height="113.6"/>
	<line fill="none" stroke="#010101" stroke-width="5.6693" stroke-miterlimit="10" x1="17.1" y1="245.9" x2="61.3" y2="245.9"/>
	<line fill="none" stroke="#010101" stroke-width="2.8346" stroke-miterlimit="10" x1="30.8" y1="190.7" x2="30.8" y2="244.7"/>
	<path fill="none" stroke="#010101" stroke-width="4.252" stroke-miterlimit="10" d="M46.2,245.9"/>
	<path fill="none" stroke="#010101" stroke-width="4.252" stroke-miterlimit="10" d="M45.5,190.7"/>
	<line fill="none" stroke="#010101" stroke-width="4.252" stroke-miterlimit="10" x1="15.3" y1="212.7" x2="60.7" y2="212.7"/>
	<line fill="none" stroke="#010101" stroke-width="2.8346" stroke-miterlimit="10" x1="15.3" y1="228.8" x2="60.7" y2="228.8"/>
	<line fill="none" stroke="#010101" stroke-width="2.8346" stroke-miterlimit="10" x1="16.5" y1="263.5" x2="60.7" y2="263.5"/>
	<line fill="none" stroke="#010101" stroke-width="2.8346" stroke-miterlimit="10" x1="15.3" y1="281.4" x2="61.5" y2="281.4"/>
	<line fill="none" stroke="#010101" stroke-width="2.8346" stroke-miterlimit="10" x1="30.8" y1="245.9" x2="30.8" y2="299"/>
	<line fill="none" stroke="#010101" stroke-width="2.8346" stroke-miterlimit="10" x1="45.5" y1="192.9" x2="45.5" y2="300.4"/>
</g>
<g id="Window_2">
</g>
<g id="Window_3">
</g>
<g id="Window_4">
</g>
<g id="Window_5">
</g>
<g id="Window_6">
</g>
<g id="Window_7">
</g>
<g id="Window_8">
</g>
<g id="Window_9">
</g>
<g id="Window_10">
</g>
<g id="Window_11">
</g>
<g id="Window_12">
</g>
</svg>
