<?xml version="1.0" encoding="utf-8"?>
<!-- Generator: Adobe Illustrator 18.1.1, SVG Export Plug-In . SVG Version: 6.00 Build 0)  -->
<svg version="1.1" xmlns="http://www.w3.org/2000/svg" xmlns:xlink="http://www.w3.org/1999/xlink" x="0px" y="0px"
	 viewBox="0 0 133.2 307" enable-background="new 0 0 133.2 307" xml:space="preserve">
<g id="Window_1">
</g>
<g id="Window_2">
</g>
<g id="Window_3">
</g>
<g id="Window_4">
</g>
<g id="Window_5">
</g>
<g id="Window_6">
</g>
<g id="Window_7">
	<rect x="23.8" y="0" fill="#010101" width="84.6" height="10.6"/>
	<rect x="31.1" y="15.1" fill="none" stroke="#010101" stroke-width="4.9606" stroke-miterlimit="10" width="70.6" height="123.2"/>
	<rect x="105.9" y="12.1" fill="#010101" width="27.4" height="130.7"/>
	<line fill="none" stroke="#FFFFFF" stroke-miterlimit="10" x1="109" y1="19.8" x2="129.9" y2="19.8"/>
	<line fill="none" stroke="#FFFFFF" stroke-miterlimit="10" x1="109" y1="21.3" x2="129.9" y2="21.3"/>
	<line fill="none" stroke="#FFFFFF" stroke-miterlimit="10" x1="109" y1="22.8" x2="129.9" y2="22.8"/>
	<line fill="none" stroke="#FFFFFF" stroke-miterlimit="10" x1="109" y1="24.1" x2="129.9" y2="24.1"/>
	<line fill="none" stroke="#FFFFFF" stroke-miterlimit="10" x1="109" y1="25.5" x2="129.9" y2="25.5"/>
	<line fill="none" stroke="#FFFFFF" stroke-miterlimit="10" x1="109" y1="26.8" x2="129.9" y2="26.8"/>
	<line fill="none" stroke="#FFFFFF" stroke-miterlimit="10" x1="109" y1="28.3" x2="129.9" y2="28.3"/>
	<line fill="none" stroke="#FFFFFF" stroke-miterlimit="10" x1="109" y1="29.9" x2="129.9" y2="29.9"/>
	<line fill="none" stroke="#FFFFFF" stroke-miterlimit="10" x1="109" y1="31.2" x2="129.9" y2="31.2"/>
	<line fill="none" stroke="#FFFFFF" stroke-miterlimit="10" x1="109" y1="32.6" x2="129.9" y2="32.6"/>
	<line fill="none" stroke="#FFFFFF" stroke-miterlimit="10" x1="109" y1="33.8" x2="129.9" y2="33.8"/>
	<line fill="none" stroke="#FFFFFF" stroke-miterlimit="10" x1="109" y1="35.3" x2="129.9" y2="35.3"/>
	<line fill="none" stroke="#FFFFFF" stroke-miterlimit="10" x1="109" y1="36.9" x2="129.9" y2="36.9"/>
	<line fill="none" stroke="#FFFFFF" stroke-miterlimit="10" x1="109" y1="38.2" x2="129.9" y2="38.2"/>
	<line fill="none" stroke="#FFFFFF" stroke-miterlimit="10" x1="109" y1="39.6" x2="129.9" y2="39.6"/>
	<line fill="none" stroke="#FFFFFF" stroke-miterlimit="10" x1="109" y1="41.1" x2="129.9" y2="41.1"/>
	<line fill="none" stroke="#FFFFFF" stroke-miterlimit="10" x1="109" y1="42.6" x2="129.9" y2="42.6"/>
	<line fill="none" stroke="#FFFFFF" stroke-miterlimit="10" x1="109" y1="44.1" x2="129.9" y2="44.1"/>
	<line fill="none" stroke="#FFFFFF" stroke-miterlimit="10" x1="109" y1="45.5" x2="129.9" y2="45.5"/>
	<line fill="none" stroke="#FFFFFF" stroke-miterlimit="10" x1="109" y1="46.9" x2="129.9" y2="46.9"/>
	<line fill="none" stroke="#FFFFFF" stroke-miterlimit="10" x1="109" y1="48.2" x2="129.9" y2="48.2"/>
	<line fill="none" stroke="#FFFFFF" stroke-miterlimit="10" x1="109" y1="49.7" x2="129.9" y2="49.7"/>
	<line fill="none" stroke="#FFFFFF" stroke-miterlimit="10" x1="109" y1="51.2" x2="129.9" y2="51.2"/>
	<line fill="none" stroke="#FFFFFF" stroke-miterlimit="10" x1="109" y1="52.5" x2="129.9" y2="52.5"/>
	<line fill="none" stroke="#FFFFFF" stroke-miterlimit="10" x1="109" y1="53.9" x2="129.9" y2="53.9"/>
	<line fill="none" stroke="#FFFFFF" stroke-miterlimit="10" x1="109" y1="55.2" x2="129.9" y2="55.2"/>
	<line fill="none" stroke="#FFFFFF" stroke-miterlimit="10" x1="109" y1="56.7" x2="129.9" y2="56.7"/>
	<line fill="none" stroke="#FFFFFF" stroke-miterlimit="10" x1="109" y1="58.2" x2="129.9" y2="58.2"/>
	<line fill="none" stroke="#FFFFFF" stroke-miterlimit="10" x1="109" y1="59.5" x2="129.9" y2="59.5"/>
	<line fill="none" stroke="#FFFFFF" stroke-miterlimit="10" x1="109" y1="60.9" x2="129.9" y2="60.9"/>
	<line fill="none" stroke="#FFFFFF" stroke-miterlimit="10" x1="109.1" y1="62.4" x2="130" y2="62.4"/>
	<line fill="none" stroke="#FFFFFF" stroke-miterlimit="10" x1="109.1" y1="63.9" x2="130" y2="63.9"/>
	<line fill="none" stroke="#FFFFFF" stroke-miterlimit="10" x1="109.1" y1="65.4" x2="130" y2="65.4"/>
	<line fill="none" stroke="#FFFFFF" stroke-miterlimit="10" x1="109.1" y1="66.7" x2="130" y2="66.7"/>
	<line fill="none" stroke="#FFFFFF" stroke-miterlimit="10" x1="109.1" y1="68.1" x2="130" y2="68.1"/>
	<line fill="none" stroke="#FFFFFF" stroke-miterlimit="10" x1="109.1" y1="69.4" x2="130" y2="69.4"/>
	<line fill="none" stroke="#FFFFFF" stroke-miterlimit="10" x1="109.1" y1="71" x2="130" y2="71"/>
	<line fill="none" stroke="#FFFFFF" stroke-miterlimit="10" x1="109.1" y1="72.5" x2="130" y2="72.5"/>
	<line fill="none" stroke="#FFFFFF" stroke-miterlimit="10" x1="109.1" y1="73.8" x2="130" y2="73.8"/>
	<line fill="none" stroke="#FFFFFF" stroke-miterlimit="10" x1="109" y1="82" x2="130" y2="82"/>
	<line fill="none" stroke="#FFFFFF" stroke-miterlimit="10" x1="109" y1="83.5" x2="130" y2="83.5"/>
	<line fill="none" stroke="#FFFFFF" stroke-miterlimit="10" x1="109" y1="85" x2="130" y2="85"/>
	<line fill="none" stroke="#FFFFFF" stroke-miterlimit="10" x1="109" y1="86.3" x2="130" y2="86.3"/>
	<line fill="none" stroke="#FFFFFF" stroke-miterlimit="10" x1="109" y1="87.7" x2="130" y2="87.7"/>
	<line fill="none" stroke="#FFFFFF" stroke-miterlimit="10" x1="109" y1="89" x2="130" y2="89"/>
	<line fill="none" stroke="#FFFFFF" stroke-miterlimit="10" x1="109" y1="90.5" x2="130" y2="90.5"/>
	<line fill="none" stroke="#FFFFFF" stroke-miterlimit="10" x1="109" y1="92.1" x2="130" y2="92.1"/>
	<line fill="none" stroke="#FFFFFF" stroke-miterlimit="10" x1="109" y1="93.4" x2="130" y2="93.4"/>
	<line fill="none" stroke="#FFFFFF" stroke-miterlimit="10" x1="109" y1="94.8" x2="130" y2="94.8"/>
	<line fill="none" stroke="#FFFFFF" stroke-miterlimit="10" x1="109" y1="96" x2="130" y2="96"/>
	<line fill="none" stroke="#FFFFFF" stroke-miterlimit="10" x1="109" y1="97.5" x2="130" y2="97.5"/>
	<line fill="none" stroke="#FFFFFF" stroke-miterlimit="10" x1="109" y1="99.1" x2="130" y2="99.1"/>
	<line fill="none" stroke="#FFFFFF" stroke-miterlimit="10" x1="109" y1="100.4" x2="130" y2="100.4"/>
	<line fill="none" stroke="#FFFFFF" stroke-miterlimit="10" x1="109" y1="101.8" x2="130" y2="101.8"/>
	<line fill="none" stroke="#FFFFFF" stroke-miterlimit="10" x1="109" y1="103.3" x2="130" y2="103.3"/>
	<line fill="none" stroke="#FFFFFF" stroke-miterlimit="10" x1="109" y1="104.8" x2="130" y2="104.8"/>
	<line fill="none" stroke="#FFFFFF" stroke-miterlimit="10" x1="109" y1="106.3" x2="130" y2="106.3"/>
	<line fill="none" stroke="#FFFFFF" stroke-miterlimit="10" x1="109" y1="107.7" x2="130" y2="107.7"/>
	<line fill="none" stroke="#FFFFFF" stroke-miterlimit="10" x1="109" y1="109.1" x2="130" y2="109.1"/>
	<line fill="none" stroke="#FFFFFF" stroke-miterlimit="10" x1="109" y1="110.4" x2="130" y2="110.4"/>
	<line fill="none" stroke="#FFFFFF" stroke-miterlimit="10" x1="109" y1="111.9" x2="130" y2="111.9"/>
	<line fill="none" stroke="#FFFFFF" stroke-miterlimit="10" x1="109" y1="113.4" x2="130" y2="113.4"/>
	<line fill="none" stroke="#FFFFFF" stroke-miterlimit="10" x1="109" y1="114.7" x2="130" y2="114.7"/>
	<line fill="none" stroke="#FFFFFF" stroke-miterlimit="10" x1="109" y1="116.1" x2="130" y2="116.1"/>
	<line fill="none" stroke="#FFFFFF" stroke-miterlimit="10" x1="109" y1="117.4" x2="130" y2="117.4"/>
	<line fill="none" stroke="#FFFFFF" stroke-miterlimit="10" x1="109" y1="118.9" x2="130" y2="118.9"/>
	<line fill="none" stroke="#FFFFFF" stroke-miterlimit="10" x1="109" y1="120.4" x2="130" y2="120.4"/>
	<line fill="none" stroke="#FFFFFF" stroke-miterlimit="10" x1="109" y1="121.7" x2="130" y2="121.7"/>
	<line fill="none" stroke="#FFFFFF" stroke-miterlimit="10" x1="109" y1="123.1" x2="130" y2="123.1"/>
	<line fill="none" stroke="#FFFFFF" stroke-miterlimit="10" x1="109.1" y1="124.6" x2="130.1" y2="124.6"/>
	<line fill="none" stroke="#FFFFFF" stroke-miterlimit="10" x1="109.1" y1="126.1" x2="130.1" y2="126.1"/>
	<line fill="none" stroke="#FFFFFF" stroke-miterlimit="10" x1="109.1" y1="127.6" x2="130.1" y2="127.6"/>
	<line fill="none" stroke="#FFFFFF" stroke-miterlimit="10" x1="109.1" y1="129" x2="130.1" y2="129"/>
	<line fill="none" stroke="#FFFFFF" stroke-miterlimit="10" x1="109.1" y1="130.3" x2="130.1" y2="130.3"/>
	<line fill="none" stroke="#FFFFFF" stroke-miterlimit="10" x1="109.1" y1="131.6" x2="130.1" y2="131.6"/>
	<line fill="none" stroke="#FFFFFF" stroke-miterlimit="10" x1="109.1" y1="133.2" x2="130.1" y2="133.2"/>
	<line fill="none" stroke="#FFFFFF" stroke-miterlimit="10" x1="109.1" y1="134.7" x2="130.1" y2="134.7"/>
	<line fill="none" stroke="#FFFFFF" stroke-miterlimit="10" x1="109.1" y1="136" x2="130.1" y2="136"/>
	<rect x="0" y="12.1" fill="#010101" width="27.4" height="130.7"/>
	<line fill="none" stroke="#FFFFFF" stroke-miterlimit="10" x1="3.1" y1="19.8" x2="24.1" y2="19.8"/>
	<line fill="none" stroke="#FFFFFF" stroke-miterlimit="10" x1="3.1" y1="21.3" x2="24.1" y2="21.3"/>
	<line fill="none" stroke="#FFFFFF" stroke-miterlimit="10" x1="3.1" y1="22.8" x2="24.1" y2="22.8"/>
	<line fill="none" stroke="#FFFFFF" stroke-miterlimit="10" x1="3.1" y1="24.1" x2="24.1" y2="24.1"/>
	<line fill="none" stroke="#FFFFFF" stroke-miterlimit="10" x1="3.1" y1="25.5" x2="24.1" y2="25.5"/>
	<line fill="none" stroke="#FFFFFF" stroke-miterlimit="10" x1="3.1" y1="26.8" x2="24.1" y2="26.8"/>
	<line fill="none" stroke="#FFFFFF" stroke-miterlimit="10" x1="3.1" y1="28.3" x2="24.1" y2="28.3"/>
	<line fill="none" stroke="#FFFFFF" stroke-miterlimit="10" x1="3.1" y1="29.9" x2="24.1" y2="29.9"/>
	<line fill="none" stroke="#FFFFFF" stroke-miterlimit="10" x1="3.1" y1="31.2" x2="24.1" y2="31.2"/>
	<line fill="none" stroke="#FFFFFF" stroke-miterlimit="10" x1="3.1" y1="32.6" x2="24.1" y2="32.6"/>
	<line fill="none" stroke="#FFFFFF" stroke-miterlimit="10" x1="3.1" y1="33.8" x2="24.1" y2="33.8"/>
	<line fill="none" stroke="#FFFFFF" stroke-miterlimit="10" x1="3.1" y1="35.3" x2="24.1" y2="35.3"/>
	<line fill="none" stroke="#FFFFFF" stroke-miterlimit="10" x1="3.1" y1="36.9" x2="24.1" y2="36.9"/>
	<line fill="none" stroke="#FFFFFF" stroke-miterlimit="10" x1="3.1" y1="38.2" x2="24.1" y2="38.2"/>
	<line fill="none" stroke="#FFFFFF" stroke-miterlimit="10" x1="3.1" y1="39.6" x2="24.1" y2="39.6"/>
	<line fill="none" stroke="#FFFFFF" stroke-miterlimit="10" x1="3.1" y1="41.1" x2="24.1" y2="41.1"/>
	<line fill="none" stroke="#FFFFFF" stroke-miterlimit="10" x1="3.1" y1="42.6" x2="24.1" y2="42.6"/>
	<line fill="none" stroke="#FFFFFF" stroke-miterlimit="10" x1="3.1" y1="44.1" x2="24.1" y2="44.1"/>
	<line fill="none" stroke="#FFFFFF" stroke-miterlimit="10" x1="3.1" y1="45.5" x2="24.1" y2="45.5"/>
	<line fill="none" stroke="#FFFFFF" stroke-miterlimit="10" x1="3.1" y1="46.9" x2="24.1" y2="46.9"/>
	<line fill="none" stroke="#FFFFFF" stroke-miterlimit="10" x1="3.1" y1="48.2" x2="24.1" y2="48.2"/>
	<line fill="none" stroke="#FFFFFF" stroke-miterlimit="10" x1="3.1" y1="49.7" x2="24.1" y2="49.7"/>
	<line fill="none" stroke="#FFFFFF" stroke-miterlimit="10" x1="3.1" y1="51.2" x2="24.1" y2="51.2"/>
	<line fill="none" stroke="#FFFFFF" stroke-miterlimit="10" x1="3.1" y1="52.5" x2="24.1" y2="52.5"/>
	<line fill="none" stroke="#FFFFFF" stroke-miterlimit="10" x1="3.1" y1="53.9" x2="24.1" y2="53.9"/>
	<line fill="none" stroke="#FFFFFF" stroke-miterlimit="10" x1="3.1" y1="55.2" x2="24.1" y2="55.2"/>
	<line fill="none" stroke="#FFFFFF" stroke-miterlimit="10" x1="3.1" y1="56.7" x2="24.1" y2="56.7"/>
	<line fill="none" stroke="#FFFFFF" stroke-miterlimit="10" x1="3.1" y1="58.2" x2="24.1" y2="58.2"/>
	<line fill="none" stroke="#FFFFFF" stroke-miterlimit="10" x1="3.1" y1="59.5" x2="24.1" y2="59.5"/>
	<line fill="none" stroke="#FFFFFF" stroke-miterlimit="10" x1="3.1" y1="60.9" x2="24.1" y2="60.9"/>
	<line fill="none" stroke="#FFFFFF" stroke-miterlimit="10" x1="3.2" y1="62.4" x2="24.2" y2="62.4"/>
	<line fill="none" stroke="#FFFFFF" stroke-miterlimit="10" x1="3.2" y1="63.9" x2="24.2" y2="63.9"/>
	<line fill="none" stroke="#FFFFFF" stroke-miterlimit="10" x1="3.2" y1="65.4" x2="24.2" y2="65.4"/>
	<line fill="none" stroke="#FFFFFF" stroke-miterlimit="10" x1="3.2" y1="66.7" x2="24.2" y2="66.7"/>
	<line fill="none" stroke="#FFFFFF" stroke-miterlimit="10" x1="3.2" y1="68.1" x2="24.2" y2="68.1"/>
	<line fill="none" stroke="#FFFFFF" stroke-miterlimit="10" x1="3.2" y1="69.4" x2="24.2" y2="69.4"/>
	<line fill="none" stroke="#FFFFFF" stroke-miterlimit="10" x1="3.2" y1="71" x2="24.2" y2="71"/>
	<line fill="none" stroke="#FFFFFF" stroke-miterlimit="10" x1="3.2" y1="72.5" x2="24.2" y2="72.5"/>
	<line fill="none" stroke="#FFFFFF" stroke-miterlimit="10" x1="3.2" y1="73.8" x2="24.2" y2="73.8"/>
	<line fill="none" stroke="#FFFFFF" stroke-miterlimit="10" x1="3.2" y1="82" x2="24.1" y2="82"/>
	<line fill="none" stroke="#FFFFFF" stroke-miterlimit="10" x1="3.2" y1="83.5" x2="24.1" y2="83.5"/>
	<line fill="none" stroke="#FFFFFF" stroke-miterlimit="10" x1="3.2" y1="85" x2="24.1" y2="85"/>
	<line fill="none" stroke="#FFFFFF" stroke-miterlimit="10" x1="3.2" y1="86.3" x2="24.1" y2="86.3"/>
	<line fill="none" stroke="#FFFFFF" stroke-miterlimit="10" x1="3.2" y1="87.7" x2="24.1" y2="87.7"/>
	<line fill="none" stroke="#FFFFFF" stroke-miterlimit="10" x1="3.2" y1="89" x2="24.1" y2="89"/>
	<line fill="none" stroke="#FFFFFF" stroke-miterlimit="10" x1="3.2" y1="90.5" x2="24.1" y2="90.5"/>
	<line fill="none" stroke="#FFFFFF" stroke-miterlimit="10" x1="3.2" y1="92.1" x2="24.1" y2="92.1"/>
	<line fill="none" stroke="#FFFFFF" stroke-miterlimit="10" x1="3.2" y1="93.4" x2="24.1" y2="93.4"/>
	<line fill="none" stroke="#FFFFFF" stroke-miterlimit="10" x1="3.2" y1="94.8" x2="24.1" y2="94.8"/>
	<line fill="none" stroke="#FFFFFF" stroke-miterlimit="10" x1="3.2" y1="96" x2="24.1" y2="96"/>
	<line fill="none" stroke="#FFFFFF" stroke-miterlimit="10" x1="3.2" y1="97.5" x2="24.1" y2="97.5"/>
	<line fill="none" stroke="#FFFFFF" stroke-miterlimit="10" x1="3.2" y1="99.1" x2="24.1" y2="99.1"/>
	<line fill="none" stroke="#FFFFFF" stroke-miterlimit="10" x1="3.2" y1="100.4" x2="24.1" y2="100.4"/>
	<line fill="none" stroke="#FFFFFF" stroke-miterlimit="10" x1="3.2" y1="101.8" x2="24.1" y2="101.8"/>
	<line fill="none" stroke="#FFFFFF" stroke-miterlimit="10" x1="3.2" y1="103.3" x2="24.1" y2="103.3"/>
	<line fill="none" stroke="#FFFFFF" stroke-miterlimit="10" x1="3.2" y1="104.8" x2="24.1" y2="104.8"/>
	<line fill="none" stroke="#FFFFFF" stroke-miterlimit="10" x1="3.2" y1="106.3" x2="24.1" y2="106.3"/>
	<line fill="none" stroke="#FFFFFF" stroke-miterlimit="10" x1="3.2" y1="107.7" x2="24.1" y2="107.7"/>
	<line fill="none" stroke="#FFFFFF" stroke-miterlimit="10" x1="3.2" y1="109.1" x2="24.1" y2="109.1"/>
	<line fill="none" stroke="#FFFFFF" stroke-miterlimit="10" x1="3.2" y1="110.4" x2="24.1" y2="110.4"/>
	<line fill="none" stroke="#FFFFFF" stroke-miterlimit="10" x1="3.2" y1="111.9" x2="24.1" y2="111.9"/>
	<line fill="none" stroke="#FFFFFF" stroke-miterlimit="10" x1="3.2" y1="113.4" x2="24.1" y2="113.4"/>
	<line fill="none" stroke="#FFFFFF" stroke-miterlimit="10" x1="3.2" y1="114.7" x2="24.1" y2="114.7"/>
	<line fill="none" stroke="#FFFFFF" stroke-miterlimit="10" x1="3.2" y1="116.1" x2="24.1" y2="116.1"/>
	<line fill="none" stroke="#FFFFFF" stroke-miterlimit="10" x1="3.2" y1="117.4" x2="24.1" y2="117.4"/>
	<line fill="none" stroke="#FFFFFF" stroke-miterlimit="10" x1="3.2" y1="118.9" x2="24.1" y2="118.9"/>
	<line fill="none" stroke="#FFFFFF" stroke-miterlimit="10" x1="3.2" y1="120.4" x2="24.1" y2="120.4"/>
	<line fill="none" stroke="#FFFFFF" stroke-miterlimit="10" x1="3.2" y1="121.7" x2="24.1" y2="121.7"/>
	<line fill="none" stroke="#FFFFFF" stroke-miterlimit="10" x1="3.2" y1="123.1" x2="24.1" y2="123.1"/>
	<line fill="none" stroke="#FFFFFF" stroke-miterlimit="10" x1="3.2" y1="124.6" x2="24.2" y2="124.6"/>
	<line fill="none" stroke="#FFFFFF" stroke-miterlimit="10" x1="3.2" y1="126.1" x2="24.2" y2="126.1"/>
	<line fill="none" stroke="#FFFFFF" stroke-miterlimit="10" x1="3.2" y1="127.6" x2="24.2" y2="127.6"/>
	<line fill="none" stroke="#FFFFFF" stroke-miterlimit="10" x1="3.2" y1="129" x2="24.2" y2="129"/>
	<line fill="none" stroke="#FFFFFF" stroke-miterlimit="10" x1="3.2" y1="130.3" x2="24.2" y2="130.3"/>
	<line fill="none" stroke="#FFFFFF" stroke-miterlimit="10" x1="3.2" y1="131.6" x2="24.2" y2="131.6"/>
	<line fill="none" stroke="#FFFFFF" stroke-miterlimit="10" x1="3.2" y1="133.2" x2="24.2" y2="133.2"/>
	<line fill="none" stroke="#FFFFFF" stroke-miterlimit="10" x1="3.2" y1="134.7" x2="24.2" y2="134.7"/>
	<line fill="none" stroke="#FFFFFF" stroke-miterlimit="10" x1="3.2" y1="136" x2="24.2" y2="136"/>
	<rect x="23.8" y="142.8" fill="#010101" width="84.6" height="10.2"/>
	<rect x="31.1" y="75.1" fill="#010101" width="70.6" height="6.9"/>
	<rect x="35.2" y="19.2" fill="#010101" width="61.9" height="54.6"/>
	<rect x="35.6" y="82.7" fill="#010101" width="61.9" height="51.1"/>
	<rect x="23.8" y="154" fill="#010101" width="84.6" height="10.6"/>
	
		<rect x="31.1" y="169.1" fill="none" stroke="#010101" stroke-width="4.9606" stroke-miterlimit="10" width="70.6" height="123.2"/>
	<rect x="105.9" y="166.1" fill="#010101" width="27.4" height="130.7"/>
	<line fill="none" stroke="#FFFFFF" stroke-miterlimit="10" x1="109" y1="173.8" x2="129.9" y2="173.8"/>
	<line fill="none" stroke="#FFFFFF" stroke-miterlimit="10" x1="109" y1="175.3" x2="129.9" y2="175.3"/>
	<line fill="none" stroke="#FFFFFF" stroke-miterlimit="10" x1="109" y1="176.8" x2="129.9" y2="176.8"/>
	<line fill="none" stroke="#FFFFFF" stroke-miterlimit="10" x1="109" y1="178.1" x2="129.9" y2="178.1"/>
	<line fill="none" stroke="#FFFFFF" stroke-miterlimit="10" x1="109" y1="179.5" x2="129.9" y2="179.5"/>
	<line fill="none" stroke="#FFFFFF" stroke-miterlimit="10" x1="109" y1="180.8" x2="129.9" y2="180.8"/>
	<line fill="none" stroke="#FFFFFF" stroke-miterlimit="10" x1="109" y1="182.3" x2="129.9" y2="182.3"/>
	<line fill="none" stroke="#FFFFFF" stroke-miterlimit="10" x1="109" y1="183.9" x2="129.9" y2="183.9"/>
	<line fill="none" stroke="#FFFFFF" stroke-miterlimit="10" x1="109" y1="185.2" x2="129.9" y2="185.2"/>
	<line fill="none" stroke="#FFFFFF" stroke-miterlimit="10" x1="109" y1="186.6" x2="129.9" y2="186.6"/>
	<line fill="none" stroke="#FFFFFF" stroke-miterlimit="10" x1="109" y1="187.8" x2="129.9" y2="187.8"/>
	<line fill="none" stroke="#FFFFFF" stroke-miterlimit="10" x1="109" y1="189.3" x2="129.9" y2="189.3"/>
	<line fill="none" stroke="#FFFFFF" stroke-miterlimit="10" x1="109" y1="190.9" x2="129.9" y2="190.9"/>
	<line fill="none" stroke="#FFFFFF" stroke-miterlimit="10" x1="109" y1="192.2" x2="129.9" y2="192.2"/>
	<line fill="none" stroke="#FFFFFF" stroke-miterlimit="10" x1="109" y1="193.6" x2="129.9" y2="193.6"/>
	<line fill="none" stroke="#FFFFFF" stroke-miterlimit="10" x1="109" y1="195.1" x2="129.9" y2="195.1"/>
	<line fill="none" stroke="#FFFFFF" stroke-miterlimit="10" x1="109" y1="196.6" x2="129.9" y2="196.6"/>
	<line fill="none" stroke="#FFFFFF" stroke-miterlimit="10" x1="109" y1="198.1" x2="129.9" y2="198.1"/>
	<line fill="none" stroke="#FFFFFF" stroke-miterlimit="10" x1="109" y1="199.5" x2="129.9" y2="199.5"/>
	<line fill="none" stroke="#FFFFFF" stroke-miterlimit="10" x1="109" y1="200.9" x2="129.9" y2="200.9"/>
	<line fill="none" stroke="#FFFFFF" stroke-miterlimit="10" x1="109" y1="202.2" x2="129.9" y2="202.2"/>
	<line fill="none" stroke="#FFFFFF" stroke-miterlimit="10" x1="109" y1="203.7" x2="129.9" y2="203.7"/>
	<line fill="none" stroke="#FFFFFF" stroke-miterlimit="10" x1="109" y1="205.2" x2="129.9" y2="205.2"/>
	<line fill="none" stroke="#FFFFFF" stroke-miterlimit="10" x1="109" y1="206.5" x2="129.9" y2="206.5"/>
	<line fill="none" stroke="#FFFFFF" stroke-miterlimit="10" x1="109" y1="207.9" x2="129.9" y2="207.9"/>
	<line fill="none" stroke="#FFFFFF" stroke-miterlimit="10" x1="109" y1="209.2" x2="129.9" y2="209.2"/>
	<line fill="none" stroke="#FFFFFF" stroke-miterlimit="10" x1="109" y1="210.7" x2="129.9" y2="210.7"/>
	<line fill="none" stroke="#FFFFFF" stroke-miterlimit="10" x1="109" y1="212.2" x2="129.9" y2="212.2"/>
	<line fill="none" stroke="#FFFFFF" stroke-miterlimit="10" x1="109" y1="213.5" x2="129.9" y2="213.5"/>
	<line fill="none" stroke="#FFFFFF" stroke-miterlimit="10" x1="109" y1="214.9" x2="129.9" y2="214.9"/>
	<line fill="none" stroke="#FFFFFF" stroke-miterlimit="10" x1="109.1" y1="216.4" x2="130" y2="216.4"/>
	<line fill="none" stroke="#FFFFFF" stroke-miterlimit="10" x1="109.1" y1="217.9" x2="130" y2="217.9"/>
	<line fill="none" stroke="#FFFFFF" stroke-miterlimit="10" x1="109.1" y1="219.4" x2="130" y2="219.4"/>
	<line fill="none" stroke="#FFFFFF" stroke-miterlimit="10" x1="109.1" y1="220.7" x2="130" y2="220.7"/>
	<line fill="none" stroke="#FFFFFF" stroke-miterlimit="10" x1="109.1" y1="222.1" x2="130" y2="222.1"/>
	<line fill="none" stroke="#FFFFFF" stroke-miterlimit="10" x1="109.1" y1="223.4" x2="130" y2="223.4"/>
	<line fill="none" stroke="#FFFFFF" stroke-miterlimit="10" x1="109.1" y1="225" x2="130" y2="225"/>
	<line fill="none" stroke="#FFFFFF" stroke-miterlimit="10" x1="109.1" y1="226.5" x2="130" y2="226.5"/>
	<line fill="none" stroke="#FFFFFF" stroke-miterlimit="10" x1="109.1" y1="227.8" x2="130" y2="227.8"/>
	<line fill="none" stroke="#FFFFFF" stroke-miterlimit="10" x1="109" y1="236" x2="130" y2="236"/>
	<line fill="none" stroke="#FFFFFF" stroke-miterlimit="10" x1="109" y1="237.5" x2="130" y2="237.5"/>
	<line fill="none" stroke="#FFFFFF" stroke-miterlimit="10" x1="109" y1="239" x2="130" y2="239"/>
	<line fill="none" stroke="#FFFFFF" stroke-miterlimit="10" x1="109" y1="240.3" x2="130" y2="240.3"/>
	<line fill="none" stroke="#FFFFFF" stroke-miterlimit="10" x1="109" y1="241.7" x2="130" y2="241.7"/>
	<line fill="none" stroke="#FFFFFF" stroke-miterlimit="10" x1="109" y1="243" x2="130" y2="243"/>
	<line fill="none" stroke="#FFFFFF" stroke-miterlimit="10" x1="109" y1="244.6" x2="130" y2="244.6"/>
	<line fill="none" stroke="#FFFFFF" stroke-miterlimit="10" x1="109" y1="246.1" x2="130" y2="246.1"/>
	<line fill="none" stroke="#FFFFFF" stroke-miterlimit="10" x1="109" y1="247.4" x2="130" y2="247.4"/>
	<line fill="none" stroke="#FFFFFF" stroke-miterlimit="10" x1="109" y1="248.8" x2="130" y2="248.8"/>
	<line fill="none" stroke="#FFFFFF" stroke-miterlimit="10" x1="109" y1="250" x2="130" y2="250"/>
	<line fill="none" stroke="#FFFFFF" stroke-miterlimit="10" x1="109" y1="251.6" x2="130" y2="251.6"/>
	<line fill="none" stroke="#FFFFFF" stroke-miterlimit="10" x1="109" y1="253.1" x2="130" y2="253.1"/>
	<line fill="none" stroke="#FFFFFF" stroke-miterlimit="10" x1="109" y1="254.4" x2="130" y2="254.4"/>
	<line fill="none" stroke="#FFFFFF" stroke-miterlimit="10" x1="109" y1="255.8" x2="130" y2="255.8"/>
	<line fill="none" stroke="#FFFFFF" stroke-miterlimit="10" x1="109" y1="257.3" x2="130" y2="257.3"/>
	<line fill="none" stroke="#FFFFFF" stroke-miterlimit="10" x1="109" y1="258.8" x2="130" y2="258.8"/>
	<line fill="none" stroke="#FFFFFF" stroke-miterlimit="10" x1="109" y1="260.4" x2="130" y2="260.4"/>
	<line fill="none" stroke="#FFFFFF" stroke-miterlimit="10" x1="109" y1="261.7" x2="130" y2="261.7"/>
	<line fill="none" stroke="#FFFFFF" stroke-miterlimit="10" x1="109" y1="263.1" x2="130" y2="263.1"/>
	<line fill="none" stroke="#FFFFFF" stroke-miterlimit="10" x1="109" y1="264.4" x2="130" y2="264.4"/>
	<line fill="none" stroke="#FFFFFF" stroke-miterlimit="10" x1="109" y1="265.9" x2="130" y2="265.9"/>
	<line fill="none" stroke="#FFFFFF" stroke-miterlimit="10" x1="109" y1="267.4" x2="130" y2="267.4"/>
	<line fill="none" stroke="#FFFFFF" stroke-miterlimit="10" x1="109" y1="268.7" x2="130" y2="268.7"/>
	<line fill="none" stroke="#FFFFFF" stroke-miterlimit="10" x1="109" y1="270.1" x2="130" y2="270.1"/>
	<line fill="none" stroke="#FFFFFF" stroke-miterlimit="10" x1="109" y1="271.4" x2="130" y2="271.4"/>
	<line fill="none" stroke="#FFFFFF" stroke-miterlimit="10" x1="109" y1="272.9" x2="130" y2="272.9"/>
	<line fill="none" stroke="#FFFFFF" stroke-miterlimit="10" x1="109" y1="274.4" x2="130" y2="274.4"/>
	<line fill="none" stroke="#FFFFFF" stroke-miterlimit="10" x1="109" y1="275.7" x2="130" y2="275.7"/>
	<line fill="none" stroke="#FFFFFF" stroke-miterlimit="10" x1="109" y1="277.1" x2="130" y2="277.1"/>
	<line fill="none" stroke="#FFFFFF" stroke-miterlimit="10" x1="109.1" y1="278.6" x2="130.1" y2="278.6"/>
	<line fill="none" stroke="#FFFFFF" stroke-miterlimit="10" x1="109.1" y1="280.1" x2="130.1" y2="280.1"/>
	<line fill="none" stroke="#FFFFFF" stroke-miterlimit="10" x1="109.1" y1="281.6" x2="130.1" y2="281.6"/>
	<line fill="none" stroke="#FFFFFF" stroke-miterlimit="10" x1="109.1" y1="283" x2="130.1" y2="283"/>
	<line fill="none" stroke="#FFFFFF" stroke-miterlimit="10" x1="109.1" y1="284.4" x2="130.1" y2="284.4"/>
	<line fill="none" stroke="#FFFFFF" stroke-miterlimit="10" x1="109.1" y1="285.6" x2="130.1" y2="285.6"/>
	<line fill="none" stroke="#FFFFFF" stroke-miterlimit="10" x1="109.1" y1="287.2" x2="130.1" y2="287.2"/>
	<line fill="none" stroke="#FFFFFF" stroke-miterlimit="10" x1="109.1" y1="288.7" x2="130.1" y2="288.7"/>
	<line fill="none" stroke="#FFFFFF" stroke-miterlimit="10" x1="109.1" y1="290" x2="130.1" y2="290"/>
	<rect x="0" y="166.1" fill="#010101" width="27.4" height="130.7"/>
	<line fill="none" stroke="#FFFFFF" stroke-miterlimit="10" x1="3.1" y1="173.8" x2="24.1" y2="173.8"/>
	<line fill="none" stroke="#FFFFFF" stroke-miterlimit="10" x1="3.1" y1="175.3" x2="24.1" y2="175.3"/>
	<line fill="none" stroke="#FFFFFF" stroke-miterlimit="10" x1="3.1" y1="176.8" x2="24.1" y2="176.8"/>
	<line fill="none" stroke="#FFFFFF" stroke-miterlimit="10" x1="3.1" y1="178.1" x2="24.1" y2="178.1"/>
	<line fill="none" stroke="#FFFFFF" stroke-miterlimit="10" x1="3.1" y1="179.5" x2="24.1" y2="179.5"/>
	<line fill="none" stroke="#FFFFFF" stroke-miterlimit="10" x1="3.1" y1="180.8" x2="24.1" y2="180.8"/>
	<line fill="none" stroke="#FFFFFF" stroke-miterlimit="10" x1="3.1" y1="182.3" x2="24.1" y2="182.3"/>
	<line fill="none" stroke="#FFFFFF" stroke-miterlimit="10" x1="3.1" y1="183.9" x2="24.1" y2="183.9"/>
	<line fill="none" stroke="#FFFFFF" stroke-miterlimit="10" x1="3.1" y1="185.2" x2="24.1" y2="185.2"/>
	<line fill="none" stroke="#FFFFFF" stroke-miterlimit="10" x1="3.1" y1="186.6" x2="24.1" y2="186.6"/>
	<line fill="none" stroke="#FFFFFF" stroke-miterlimit="10" x1="3.1" y1="187.8" x2="24.1" y2="187.8"/>
	<line fill="none" stroke="#FFFFFF" stroke-miterlimit="10" x1="3.1" y1="189.3" x2="24.1" y2="189.3"/>
	<line fill="none" stroke="#FFFFFF" stroke-miterlimit="10" x1="3.1" y1="190.9" x2="24.1" y2="190.9"/>
	<line fill="none" stroke="#FFFFFF" stroke-miterlimit="10" x1="3.1" y1="192.2" x2="24.1" y2="192.2"/>
	<line fill="none" stroke="#FFFFFF" stroke-miterlimit="10" x1="3.1" y1="193.6" x2="24.1" y2="193.6"/>
	<line fill="none" stroke="#FFFFFF" stroke-miterlimit="10" x1="3.1" y1="195.1" x2="24.1" y2="195.1"/>
	<line fill="none" stroke="#FFFFFF" stroke-miterlimit="10" x1="3.1" y1="196.6" x2="24.1" y2="196.6"/>
	<line fill="none" stroke="#FFFFFF" stroke-miterlimit="10" x1="3.1" y1="198.1" x2="24.1" y2="198.1"/>
	<line fill="none" stroke="#FFFFFF" stroke-miterlimit="10" x1="3.1" y1="199.5" x2="24.1" y2="199.5"/>
	<line fill="none" stroke="#FFFFFF" stroke-miterlimit="10" x1="3.1" y1="200.9" x2="24.1" y2="200.9"/>
	<line fill="none" stroke="#FFFFFF" stroke-miterlimit="10" x1="3.1" y1="202.2" x2="24.1" y2="202.2"/>
	<line fill="none" stroke="#FFFFFF" stroke-miterlimit="10" x1="3.1" y1="203.7" x2="24.1" y2="203.7"/>
	<line fill="none" stroke="#FFFFFF" stroke-miterlimit="10" x1="3.1" y1="205.2" x2="24.1" y2="205.2"/>
	<line fill="none" stroke="#FFFFFF" stroke-miterlimit="10" x1="3.1" y1="206.5" x2="24.1" y2="206.5"/>
	<line fill="none" stroke="#FFFFFF" stroke-miterlimit="10" x1="3.1" y1="207.9" x2="24.1" y2="207.9"/>
	<line fill="none" stroke="#FFFFFF" stroke-miterlimit="10" x1="3.1" y1="209.2" x2="24.1" y2="209.2"/>
	<line fill="none" stroke="#FFFFFF" stroke-miterlimit="10" x1="3.1" y1="210.7" x2="24.1" y2="210.7"/>
	<line fill="none" stroke="#FFFFFF" stroke-miterlimit="10" x1="3.1" y1="212.2" x2="24.1" y2="212.2"/>
	<line fill="none" stroke="#FFFFFF" stroke-miterlimit="10" x1="3.1" y1="213.5" x2="24.1" y2="213.5"/>
	<line fill="none" stroke="#FFFFFF" stroke-miterlimit="10" x1="3.1" y1="214.9" x2="24.1" y2="214.9"/>
	<line fill="none" stroke="#FFFFFF" stroke-miterlimit="10" x1="3.2" y1="216.4" x2="24.2" y2="216.4"/>
	<line fill="none" stroke="#FFFFFF" stroke-miterlimit="10" x1="3.2" y1="217.9" x2="24.2" y2="217.9"/>
	<line fill="none" stroke="#FFFFFF" stroke-miterlimit="10" x1="3.2" y1="219.4" x2="24.2" y2="219.4"/>
	<line fill="none" stroke="#FFFFFF" stroke-miterlimit="10" x1="3.2" y1="220.7" x2="24.2" y2="220.7"/>
	<line fill="none" stroke="#FFFFFF" stroke-miterlimit="10" x1="3.2" y1="222.1" x2="24.2" y2="222.1"/>
	<line fill="none" stroke="#FFFFFF" stroke-miterlimit="10" x1="3.2" y1="223.4" x2="24.2" y2="223.4"/>
	<line fill="none" stroke="#FFFFFF" stroke-miterlimit="10" x1="3.2" y1="225" x2="24.2" y2="225"/>
	<line fill="none" stroke="#FFFFFF" stroke-miterlimit="10" x1="3.2" y1="226.5" x2="24.2" y2="226.5"/>
	<line fill="none" stroke="#FFFFFF" stroke-miterlimit="10" x1="3.2" y1="227.8" x2="24.2" y2="227.8"/>
	<line fill="none" stroke="#FFFFFF" stroke-miterlimit="10" x1="3.2" y1="236" x2="24.1" y2="236"/>
	<line fill="none" stroke="#FFFFFF" stroke-miterlimit="10" x1="3.2" y1="237.5" x2="24.1" y2="237.5"/>
	<line fill="none" stroke="#FFFFFF" stroke-miterlimit="10" x1="3.2" y1="239" x2="24.1" y2="239"/>
	<line fill="none" stroke="#FFFFFF" stroke-miterlimit="10" x1="3.2" y1="240.3" x2="24.1" y2="240.3"/>
	<line fill="none" stroke="#FFFFFF" stroke-miterlimit="10" x1="3.2" y1="241.7" x2="24.1" y2="241.7"/>
	<line fill="none" stroke="#FFFFFF" stroke-miterlimit="10" x1="3.2" y1="243" x2="24.1" y2="243"/>
	<line fill="none" stroke="#FFFFFF" stroke-miterlimit="10" x1="3.2" y1="244.6" x2="24.1" y2="244.6"/>
	<line fill="none" stroke="#FFFFFF" stroke-miterlimit="10" x1="3.2" y1="246.1" x2="24.1" y2="246.1"/>
	<line fill="none" stroke="#FFFFFF" stroke-miterlimit="10" x1="3.2" y1="247.4" x2="24.1" y2="247.4"/>
	<line fill="none" stroke="#FFFFFF" stroke-miterlimit="10" x1="3.2" y1="248.8" x2="24.1" y2="248.8"/>
	<line fill="none" stroke="#FFFFFF" stroke-miterlimit="10" x1="3.2" y1="250" x2="24.1" y2="250"/>
	<line fill="none" stroke="#FFFFFF" stroke-miterlimit="10" x1="3.2" y1="251.6" x2="24.1" y2="251.6"/>
	<line fill="none" stroke="#FFFFFF" stroke-miterlimit="10" x1="3.2" y1="253.1" x2="24.1" y2="253.1"/>
	<line fill="none" stroke="#FFFFFF" stroke-miterlimit="10" x1="3.2" y1="254.4" x2="24.1" y2="254.4"/>
	<line fill="none" stroke="#FFFFFF" stroke-miterlimit="10" x1="3.2" y1="255.8" x2="24.1" y2="255.8"/>
	<line fill="none" stroke="#FFFFFF" stroke-miterlimit="10" x1="3.2" y1="257.3" x2="24.1" y2="257.3"/>
	<line fill="none" stroke="#FFFFFF" stroke-miterlimit="10" x1="3.2" y1="258.8" x2="24.1" y2="258.8"/>
	<line fill="none" stroke="#FFFFFF" stroke-miterlimit="10" x1="3.2" y1="260.4" x2="24.1" y2="260.4"/>
	<line fill="none" stroke="#FFFFFF" stroke-miterlimit="10" x1="3.2" y1="261.7" x2="24.1" y2="261.7"/>
	<line fill="none" stroke="#FFFFFF" stroke-miterlimit="10" x1="3.2" y1="263.1" x2="24.1" y2="263.1"/>
	<line fill="none" stroke="#FFFFFF" stroke-miterlimit="10" x1="3.2" y1="264.4" x2="24.1" y2="264.4"/>
	<line fill="none" stroke="#FFFFFF" stroke-miterlimit="10" x1="3.2" y1="265.9" x2="24.1" y2="265.9"/>
	<line fill="none" stroke="#FFFFFF" stroke-miterlimit="10" x1="3.2" y1="267.4" x2="24.1" y2="267.4"/>
	<line fill="none" stroke="#FFFFFF" stroke-miterlimit="10" x1="3.2" y1="268.7" x2="24.1" y2="268.7"/>
	<line fill="none" stroke="#FFFFFF" stroke-miterlimit="10" x1="3.2" y1="270.1" x2="24.1" y2="270.1"/>
	<line fill="none" stroke="#FFFFFF" stroke-miterlimit="10" x1="3.2" y1="271.4" x2="24.1" y2="271.4"/>
	<line fill="none" stroke="#FFFFFF" stroke-miterlimit="10" x1="3.2" y1="272.9" x2="24.1" y2="272.9"/>
	<line fill="none" stroke="#FFFFFF" stroke-miterlimit="10" x1="3.2" y1="274.4" x2="24.1" y2="274.4"/>
	<line fill="none" stroke="#FFFFFF" stroke-miterlimit="10" x1="3.2" y1="275.7" x2="24.1" y2="275.7"/>
	<line fill="none" stroke="#FFFFFF" stroke-miterlimit="10" x1="3.2" y1="277.1" x2="24.1" y2="277.1"/>
	<line fill="none" stroke="#FFFFFF" stroke-miterlimit="10" x1="3.2" y1="278.6" x2="24.2" y2="278.6"/>
	<line fill="none" stroke="#FFFFFF" stroke-miterlimit="10" x1="3.2" y1="280.1" x2="24.2" y2="280.1"/>
	<line fill="none" stroke="#FFFFFF" stroke-miterlimit="10" x1="3.2" y1="281.6" x2="24.2" y2="281.6"/>
	<line fill="none" stroke="#FFFFFF" stroke-miterlimit="10" x1="3.2" y1="283" x2="24.2" y2="283"/>
	<line fill="none" stroke="#FFFFFF" stroke-miterlimit="10" x1="3.2" y1="284.4" x2="24.2" y2="284.4"/>
	<line fill="none" stroke="#FFFFFF" stroke-miterlimit="10" x1="3.2" y1="285.6" x2="24.2" y2="285.6"/>
	<line fill="none" stroke="#FFFFFF" stroke-miterlimit="10" x1="3.2" y1="287.2" x2="24.2" y2="287.2"/>
	<line fill="none" stroke="#FFFFFF" stroke-miterlimit="10" x1="3.2" y1="288.7" x2="24.2" y2="288.7"/>
	<line fill="none" stroke="#FFFFFF" stroke-miterlimit="10" x1="3.2" y1="290" x2="24.2" y2="290"/>
	<rect x="23.8" y="296.8" fill="#010101" width="84.6" height="10.2"/>
	<rect x="31.1" y="229.1" fill="#010101" width="70.6" height="6.9"/>
</g>
<g id="Window_8">
</g>
<g id="Window_9">
</g>
<g id="Window_10">
</g>
<g id="Window_11">
</g>
<g id="Window_12">
</g>
</svg>
