<?xml version="1.0" encoding="utf-8"?>
<!-- Generator: Adobe Illustrator 18.1.1, SVG Export Plug-In . SVG Version: 6.00 Build 0)  -->
<svg version="1.1" xmlns="http://www.w3.org/2000/svg" xmlns:xlink="http://www.w3.org/1999/xlink" x="0px" y="0px"
	 viewBox="0 0 90.4 307" enable-background="new 0 0 90.4 307" xml:space="preserve">
<g id="Window_1">
</g>
<g id="Window_2">
	<path fill="#010101" d="M6.3,161.3"/>
	<line fill="none" stroke="#010101" stroke-width="2.8346" stroke-miterlimit="10" x1="0" y1="1.4" x2="90.4" y2="1.4"/>
	<rect x="2.5" y="3.4" fill="#010101" width="85" height="4.1"/>
	<path fill="#010101" d="M44.4,12.1c-17.1,0-34.3,0-35.6,0c-2.7,0-2.5-3.3-2.5-3.3h76.9c0,0,0.2,3.3-2.5,3.3c-1.3,0-18.5,0-35.6,0
		H44.4z"/>
	<rect x="9" y="11.7" fill="#010101" width="71" height="9.1"/>
	<rect x="14.7" y="25.1" fill="none" stroke="#010101" stroke-width="5.6693" stroke-miterlimit="10" width="59.7" height="109.3"/>
	<path fill="#010101" d="M40.3,138.3h38.9v1.3h-0.9c0,0-0.1,1.7-1.2,1.7H52.1H51H12.1c-1.1,0-1.2-1.7-1.2-1.7h-0.9v-1.3H40.3z"/>
	<line fill="none" stroke="#010101" stroke-width="5.6693" stroke-miterlimit="10" x1="14.7" y1="79.8" x2="74.3" y2="79.8"/>
	<line fill="none" stroke="#010101" stroke-width="2.8346" stroke-miterlimit="10" x1="14.7" y1="107.2" x2="74.3" y2="107.2"/>
	<rect x="18.8" y="29.4" fill="#040303" width="51.3" height="46.3"/>
	<rect x="18.8" y="83.4" fill="#040303" width="51.4" height="21.2"/>
	<rect x="18.8" y="109.2" fill="#040303" width="51.4" height="21.4"/>
	<rect x="12.2" y="142.3" fill="#010101" width="64.9" height="5.8"/>
	<rect x="15.8" y="148.7" fill="#010101" width="7.1" height="4.3"/>
	<rect x="66.5" y="148.7" fill="#010101" width="7.1" height="4.3"/>
	<line fill="none" stroke="#010101" stroke-width="2.8346" stroke-miterlimit="10" x1="0" y1="155.4" x2="90.4" y2="155.4"/>
	<rect x="2.5" y="157.5" fill="#010101" width="85" height="4.1"/>
	<path fill="#010101" d="M44.4,166.1c-17.1,0-34.3,0-35.6,0c-2.7,0-2.5-3.3-2.5-3.3h76.9c0,0,0.2,3.3-2.5,3.3c-1.3,0-18.5,0-35.6,0
		H44.4z"/>
	<rect x="9" y="165.8" fill="#010101" width="71" height="9.1"/>
	
		<rect x="14.7" y="179.2" fill="none" stroke="#010101" stroke-width="5.6693" stroke-miterlimit="10" width="59.7" height="109.3"/>
	<path fill="#010101" d="M40.3,292.4h38.9v1.3h-0.9c0,0-0.1,1.7-1.2,1.7H52.1H51H12.1c-1.1,0-1.2-1.7-1.2-1.7h-0.9v-1.3H40.3z"/>
	<line fill="none" stroke="#010101" stroke-width="5.6693" stroke-miterlimit="10" x1="14.7" y1="233.8" x2="74.3" y2="233.8"/>
	<line fill="none" stroke="#010101" stroke-width="2.8346" stroke-miterlimit="10" x1="14.7" y1="261.3" x2="74.3" y2="261.3"/>
	<rect x="12.2" y="296.3" fill="#010101" width="64.9" height="5.8"/>
	<rect x="15.8" y="302.7" fill="#010101" width="7.1" height="4.3"/>
	<rect x="66.5" y="302.7" fill="#010101" width="7.1" height="4.3"/>
</g>
<g id="Window_3">
</g>
<g id="Window_4">
</g>
<g id="Window_5">
</g>
<g id="Window_6">
</g>
<g id="Window_7">
</g>
<g id="Window_8">
</g>
<g id="Window_9">
</g>
<g id="Window_10">
</g>
<g id="Window_11">
</g>
<g id="Window_12">
</g>
</svg>
