<?xml version="1.0" encoding="utf-8"?>
<!-- Generator: Adobe Illustrator 18.1.1, SVG Export Plug-In . SVG Version: 6.00 Build 0)  -->
<svg version="1.1" xmlns="http://www.w3.org/2000/svg" xmlns:xlink="http://www.w3.org/1999/xlink" x="0px" y="0px"
	 viewBox="0 0 75.5 307" enable-background="new 0 0 75.5 307" xml:space="preserve">
<g id="Window_1">
</g>
<g id="Window_2">
	<rect y="142.2" fill="#010101" width="75.5" height="10.7"/>
	<rect fill="#010101" width="75.5" height="10.7"/>
	<rect x="6.5" y="13.7" fill="none" stroke="#010101" stroke-width="4.252" stroke-miterlimit="10" width="63.3" height="133.9"/>
	<rect x="11.2" y="18" fill="none" stroke="#010101" stroke-width="2.8346" stroke-miterlimit="10" width="53.1" height="109.3"/>
	<line fill="none" stroke="#010101" stroke-width="4.252" stroke-miterlimit="10" x1="11.2" y1="80" x2="64.3" y2="80"/>
	<line fill="none" stroke="#010101" stroke-width="2.8346" stroke-miterlimit="10" x1="29.3" y1="18" x2="29.3" y2="127.3"/>
	<line fill="none" stroke="#010101" stroke-width="2.8346" stroke-miterlimit="10" x1="47.2" y1="18" x2="47.2" y2="127.3"/>
	<line fill="none" stroke="#010101" stroke-width="2.8346" stroke-miterlimit="10" x1="11.2" y1="50.5" x2="64.3" y2="50.5"/>
	<line fill="none" stroke="#010101" stroke-width="2.8346" stroke-miterlimit="10" x1="11.2" y1="100.3" x2="64.3" y2="100.3"/>
	<rect x="13.6" y="20.3" fill="#010101" width="13.3" height="28"/>
	<rect x="31.5" y="20.3" fill="#010101" width="13.3" height="28"/>
	<rect x="49.2" y="20.3" fill="#010101" width="13.2" height="28"/>
	<rect x="13.6" y="52.6" fill="#010101" width="13.3" height="24.6"/>
	<rect x="31.5" y="52.6" fill="#010101" width="13.3" height="24.6"/>
	<rect x="49.2" y="52.6" fill="#010101" width="13.2" height="24.6"/>
	<rect x="13.6" y="82.9" fill="#010101" width="13.3" height="15.1"/>
	<rect x="31.5" y="82.9" fill="#010101" width="13.6" height="15.1"/>
	<rect x="49.2" y="82.9" fill="#010101" width="13.2" height="15.1"/>
	<rect x="13.6" y="102.3" fill="#010101" width="13.3" height="23.1"/>
	<rect x="31.7" y="102.3" fill="#010101" width="13.3" height="23.1"/>
	<rect x="49.2" y="102.3" fill="#010101" width="13.2" height="23.1"/>
	<rect y="296.3" fill="#010101" width="75.5" height="10.7"/>
	<rect y="154" fill="#010101" width="75.5" height="10.7"/>
	<rect x="6.5" y="167.7" fill="none" stroke="#010101" stroke-width="4.252" stroke-miterlimit="10" width="63.3" height="133.9"/>
	<rect x="11.2" y="172" fill="none" stroke="#010101" stroke-width="2.8346" stroke-miterlimit="10" width="53.1" height="109.3"/>
	<line fill="none" stroke="#010101" stroke-width="4.252" stroke-miterlimit="10" x1="11.2" y1="234" x2="64.3" y2="234"/>
	<line fill="none" stroke="#010101" stroke-width="2.8346" stroke-miterlimit="10" x1="29.3" y1="172" x2="29.3" y2="281.3"/>
	<line fill="none" stroke="#010101" stroke-width="2.8346" stroke-miterlimit="10" x1="47.2" y1="172" x2="47.2" y2="281.3"/>
	<line fill="none" stroke="#010101" stroke-width="2.8346" stroke-miterlimit="10" x1="11.2" y1="204.5" x2="64.3" y2="204.5"/>
	<line fill="none" stroke="#010101" stroke-width="2.8346" stroke-miterlimit="10" x1="11.2" y1="254.3" x2="64.3" y2="254.3"/>
</g>
<g id="Window_3">
</g>
<g id="Window_4">
</g>
<g id="Window_5">
</g>
<g id="Window_6">
</g>
<g id="Window_7">
</g>
<g id="Window_8">
</g>
<g id="Window_9">
</g>
<g id="Window_10">
</g>
<g id="Window_11">
</g>
<g id="Window_12">
</g>
</svg>
