<?xml version="1.0" encoding="utf-8"?>
<!-- Generator: Adobe Illustrator 18.1.1, SVG Export Plug-In . SVG Version: 6.00 Build 0)  -->
<svg version="1.1" xmlns="http://www.w3.org/2000/svg" xmlns:xlink="http://www.w3.org/1999/xlink" x="0px" y="0px"
	 viewBox="0 0 78.7 307" enable-background="new 0 0 78.7 307" xml:space="preserve">
<g id="Window_1">
</g>
<g id="Window_2">
	<rect x="7.5" y="31.1" fill="#040303" width="63.7" height="7.4"/>
	<rect x="7.5" y="138.4" fill="#040303" width="63.7" height="1.7"/>
	<rect x="65.1" y="38.5" fill="#040303" width="6.1" height="101.6"/>
	<rect x="7.5" y="38.5" fill="#040303" width="6.1" height="101.6"/>
	<path fill="#040303" d="M39.7,140.9h32h2v2.9h-1c0,0-1.7,2.2-3.5,2.4v5.7L70,153H39.7h-0.8H9l0.8-1.2v-5.7
		c-1.9-0.2-3.5-2.4-3.5-2.4h-1v-2.9h2h32H39.7z"/>
	<polygon fill="#040303" points="5.8,27.3 72.9,27.5 71.2,30.5 7.5,30.5 	"/>
	<path fill="#040303" d="M39.4,23.2H77c0,0-1.9,0.7-1.7,1.8c0.2,1.1-1.6,1.8-1.6,1.8s-17.2,0-34.4,0c-17.2,0-34.4,0-34.4,0
		S3.2,26,3.4,24.9c0.2-1.1-1.7-1.8-1.7-1.8H39.4z"/>
	<polygon fill="#040303" points="39.4,22.6 77,22.6 77,21.9 78.7,21.9 78.7,20 67.6,20 39.4,0 11.1,20 0,20 0,21.9 1.7,21.9 
		1.7,22.6 	"/>
	<polygon fill="#FFFFFF" points="16.4,22.6 39.4,5.9 62.9,22.6 	"/>
	<polyline fill="none" stroke="#FFFFFF" stroke-width="0.9921" stroke-miterlimit="10" points="65.5,22.9 39.4,4.1 12.9,22.9 	"/>
	<rect x="12.9" y="78.2" fill="#040303" width="52.6" height="4"/>
	<rect x="15.3" y="83.9" fill="#040303" width="48.4" height="53.1"/>
	<rect x="15.3" y="40.1" fill="#040303" width="48.5" height="36.9"/>
	<rect x="7.5" y="185.1" fill="#040303" width="63.7" height="7.4"/>
	<rect x="7.5" y="292.3" fill="#040303" width="63.7" height="1.7"/>
	<rect x="65.1" y="192.5" fill="#040303" width="6.1" height="101.6"/>
	<rect x="7.5" y="192.5" fill="#040303" width="6.1" height="101.6"/>
	<path fill="#040303" d="M39.7,294.9h32h2v2.9h-1c0,0-1.7,2.2-3.5,2.4v5.7L70,307H39.7h-0.8H9l0.8-1.2v-5.7
		c-1.9-0.2-3.5-2.4-3.5-2.4h-1v-2.9h2h32H39.7z"/>
	<polygon fill="#040303" points="5.8,181.3 72.9,181.5 71.2,184.5 7.5,184.5 	"/>
	<path fill="#040303" d="M39.4,177.2H77c0,0-1.9,0.7-1.7,1.8s-1.6,1.8-1.6,1.8s-17.2,0-34.4,0c-17.2,0-34.4,0-34.4,0
		s-1.8-0.7-1.6-1.8c0.2-1.1-1.7-1.8-1.7-1.8S39.4,177.2,39.4,177.2z"/>
	<polygon fill="#040303" points="39.4,176.6 77,176.6 77,175.9 78.7,175.9 78.7,174 67.6,174 39.4,154 11.1,174 0,174 0,175.9 
		1.7,175.9 1.7,176.6 	"/>
	<polygon fill="#FFFFFF" points="16.4,176.6 39.4,159.9 62.9,176.6 	"/>
	<polyline fill="none" stroke="#FFFFFF" stroke-width="0.9921" stroke-miterlimit="10" points="65.5,176.9 39.4,158.1 12.9,176.9 	
		"/>
	<rect x="12.9" y="232.2" fill="#040303" width="52.6" height="4"/>
	<rect x="16" y="238.5" fill="none" stroke="#040303" stroke-width="2.126" stroke-miterlimit="10" width="46.9" height="51.9"/>
</g>
<g id="Window_3">
</g>
<g id="Window_4">
</g>
<g id="Window_5">
</g>
<g id="Window_6">
</g>
<g id="Window_7">
</g>
<g id="Window_8">
</g>
<g id="Window_9">
</g>
<g id="Window_10">
</g>
<g id="Window_11">
</g>
<g id="Window_12">
</g>
</svg>
