<?xml version="1.0" encoding="utf-8"?>
<!-- Generator: Adobe Illustrator 18.1.1, SVG Export Plug-In . SVG Version: 6.00 Build 0)  -->
<svg version="1.1" xmlns="http://www.w3.org/2000/svg" xmlns:xlink="http://www.w3.org/1999/xlink" x="0px" y="0px"
	 viewBox="0 0 67 307" enable-background="new 0 0 67 307" xml:space="preserve">
<g id="Window_1">
</g>
<g id="Window_2">
</g>
<g id="Window_3">
</g>
<g id="Window_4">
</g>
<g id="Window_5">
</g>
<g id="Window_6">
</g>
<g id="Window_7">
	<path fill="none" stroke="#010101" stroke-width="4.9606" stroke-miterlimit="10" d="M2.5,150.5V27.9c0,0,0.2-25,31.4-25.3
		s30.7,25.3,30.7,25.3v122.6H2.5z"/>
	<line fill="none" stroke="#010101" stroke-width="9.9213" stroke-miterlimit="10" x1="3.7" y1="146" x2="62.8" y2="146"/>
	<line fill="none" stroke="#010101" stroke-width="5.6693" stroke-miterlimit="10" x1="4" y1="31.2" x2="64.5" y2="31.2"/>
	<line fill="none" stroke="#010101" stroke-width="2.126" stroke-miterlimit="10" x1="22.6" y1="32.7" x2="22.6" y2="145.7"/>
	<line fill="none" stroke="#010101" stroke-width="2.126" stroke-miterlimit="10" x1="45.1" y1="32.7" x2="45.1" y2="145.7"/>
	<line fill="none" stroke="#010101" stroke-width="2.126" stroke-miterlimit="10" x1="4" y1="49.5" x2="63" y2="49.5"/>
	<line fill="none" stroke="#010101" stroke-width="2.126" stroke-miterlimit="10" x1="4" y1="68.9" x2="63" y2="68.9"/>
	<line fill="none" stroke="#010101" stroke-width="2.126" stroke-miterlimit="10" x1="4.7" y1="105.5" x2="63.8" y2="105.5"/>
	<line fill="none" stroke="#010101" stroke-width="2.126" stroke-miterlimit="10" x1="4.7" y1="125" x2="63.8" y2="125"/>
	<line fill="none" stroke="#010101" stroke-width="3.5433" stroke-miterlimit="10" x1="3.2" y1="87.3" x2="62.3" y2="87.3"/>
	<polyline fill="none" stroke="#010101" stroke-width="2.126" stroke-miterlimit="10" points="9.7,14.1 32.8,29.3 25,5.7 	"/>
	<polyline fill="none" stroke="#010101" stroke-width="2.126" stroke-miterlimit="10" points="58.5,13.6 34.1,29.6 42.4,4.2 	"/>
	<path fill="none" stroke="#010101" stroke-width="1.4173" stroke-miterlimit="10" d="M8.6,30.2c0,0,0.5-20.6,24.2-21.8
		S58,29.3,58,29.3"/>
	<rect x="5.7" y="34.5" fill="#010101" width="15.3" height="13.4"/>
	<rect x="24.3" y="34.5" fill="#010101" width="19" height="13.4"/>
	<rect x="46.8" y="34.5" fill="#010101" width="14.4" height="13.4"/>
	<rect x="5.7" y="51" fill="#010101" width="15.3" height="16.2"/>
	<rect x="24.3" y="51" fill="#010101" width="19" height="16.2"/>
	<rect x="46.9" y="51" fill="#010101" width="14.4" height="16.2"/>
	<rect x="5.7" y="70.5" fill="#010101" width="15.3" height="14.3"/>
	<rect x="24.3" y="70.5" fill="#010101" width="19" height="14.3"/>
	<rect x="46.9" y="70.5" fill="#010101" width="14.4" height="14.3"/>
	<rect x="5.7" y="89.5" fill="#010101" width="15.3" height="14.3"/>
	<rect x="24.3" y="89.5" fill="#010101" width="19" height="14.3"/>
	<rect x="46.9" y="89.5" fill="#010101" width="14.4" height="14.3"/>
	<rect x="5.7" y="106.9" fill="#010101" width="15.3" height="16.6"/>
	<rect x="24.3" y="106.9" fill="#010101" width="19" height="16.6"/>
	<rect x="46.9" y="106.9" fill="#010101" width="14.4" height="16.6"/>
	<rect x="5.7" y="126.8" fill="#010101" width="15.3" height="13.3"/>
	<rect x="24.3" y="126.8" fill="#010101" width="19" height="13.3"/>
	<rect x="46.9" y="126.8" fill="#010101" width="14.4" height="13.3"/>
	<path fill="#010101" d="M10.7,27.6c0,0-0.2-3,3.5-7.7l12.4,7.7H10.7z"/>
	<path fill="#010101" d="M17,16.4c0,0,3.5-3.4,7.8-4.3l4.6,12.6L17,16.4z"/>
	<path fill="#010101" d="M38.3,11.2c-3.3-1.2-9.4,0-9.4,0l4.3,14.3L38.3,11.2z"/>
	<path fill="#010101" d="M42.4,12.1c0,0,4.8,0.5,7.6,4.5l-12.3,8.4L42.4,12.1z"/>
	<path fill="#010101" d="M55.6,27.6c0.2-3.5-3-7.7-3-7.7l-12.1,7.7H55.6z"/>
	<path fill="none" stroke="#010101" stroke-width="0.9921" stroke-miterlimit="10" d="M6.7,28.7c0,0,1.4-18.7,20.8-21.7
		c1.9-0.3,3.8-0.4,6.1-0.4"/>
	<path fill="none" stroke="#010101" stroke-width="0.9921" stroke-miterlimit="10" d="M60.2,28.7c0,0,0-16.1-17.2-21.1
		c-2.7-0.8-6.3-1-9.9-1"/>
	<path fill="none" stroke="#010101" stroke-width="4.9606" stroke-miterlimit="10" d="M2.5,304.5V181.9c0,0,0.2-25,31.4-25.3
		s30.7,25.3,30.7,25.3v122.6H2.5z"/>
	<line fill="none" stroke="#010101" stroke-width="9.9213" stroke-miterlimit="10" x1="3.7" y1="300" x2="62.8" y2="300"/>
	<line fill="none" stroke="#010101" stroke-width="5.6693" stroke-miterlimit="10" x1="4" y1="185.2" x2="64.5" y2="185.2"/>
	<line fill="none" stroke="#010101" stroke-width="2.126" stroke-miterlimit="10" x1="22.6" y1="186.7" x2="22.6" y2="299.7"/>
	<line fill="none" stroke="#010101" stroke-width="2.126" stroke-miterlimit="10" x1="45" y1="186.7" x2="45" y2="299.7"/>
	<line fill="none" stroke="#010101" stroke-width="2.126" stroke-miterlimit="10" x1="4" y1="203.5" x2="63" y2="203.5"/>
	<line fill="none" stroke="#010101" stroke-width="2.126" stroke-miterlimit="10" x1="4" y1="222.9" x2="63" y2="222.9"/>
	<line fill="none" stroke="#010101" stroke-width="2.126" stroke-miterlimit="10" x1="4.7" y1="259.6" x2="63.8" y2="259.6"/>
	<line fill="none" stroke="#010101" stroke-width="2.126" stroke-miterlimit="10" x1="4.7" y1="279.1" x2="63.8" y2="279.1"/>
	<line fill="none" stroke="#010101" stroke-width="3.5433" stroke-miterlimit="10" x1="3.2" y1="241.3" x2="62.3" y2="241.3"/>
	<polyline fill="none" stroke="#010101" stroke-width="2.126" stroke-miterlimit="10" points="9.7,168.1 32.8,183.3 25,159.7 	"/>
	<polyline fill="none" stroke="#010101" stroke-width="2.126" stroke-miterlimit="10" points="58.5,167.6 34.1,183.6 42.4,158.2 	
		"/>
	<path fill="none" stroke="#010101" stroke-width="1.4173" stroke-miterlimit="10" d="M8.6,184.2c0,0,0.5-20.6,24.2-21.8
		s25.2,20.9,25.2,20.9"/>
	<path fill="none" stroke="#010101" stroke-width="0.9921" stroke-miterlimit="10" d="M6.7,182.7c0,0,1.4-18.7,20.8-21.7
		c1.9-0.3,3.8-0.4,6.1-0.4"/>
	<path fill="none" stroke="#010101" stroke-width="0.9921" stroke-miterlimit="10" d="M60.2,182.7c0,0,0-16.1-17.2-21.1
		c-2.7-0.8-6.3-1-9.9-1"/>
</g>
<g id="Window_8">
</g>
<g id="Window_9">
</g>
<g id="Window_10">
</g>
<g id="Window_11">
</g>
<g id="Window_12">
</g>
</svg>
