<?xml version="1.0" encoding="utf-8"?>
<!-- Generator: Adobe Illustrator 18.1.1, SVG Export Plug-In . SVG Version: 6.00 Build 0)  -->
<svg version="1.1" xmlns="http://www.w3.org/2000/svg" xmlns:xlink="http://www.w3.org/1999/xlink" x="0px" y="0px"
	 viewBox="0 0 126.9 307" enable-background="new 0 0 126.9 307" xml:space="preserve">
<g id="Window_1">
</g>
<g id="Window_2">
</g>
<g id="Window_3">
</g>
<g id="Window_4">
</g>
<g id="Window_5">
</g>
<g id="Window_6">
	<path fill="#010101" d="M27.9,14.3c3.9-8.4,45.5-23.3,70.8,0.9c0,43.1,0.3,121.9,0.3,121.9H27.9L27.9,14.3z"/>
	<path fill="#FFFEFE" d="M92.1,130.2h-59v-11.4V17c0,0,29.5-18.6,58.9,0.3L92.1,130.2z"/>
	<line fill="none" stroke="#010101" stroke-width="5.6693" stroke-miterlimit="10" x1="33.2" y1="79.3" x2="92.1" y2="79.3"/>
	<line fill="none" stroke="#010101" stroke-width="2.126" stroke-miterlimit="10" x1="33.2" y1="32" x2="92.1" y2="32"/>
	<line fill="none" stroke="#010101" stroke-width="2.126" stroke-miterlimit="10" x1="63.6" y1="8.1" x2="63.6" y2="132.8"/>
	<line fill="none" stroke="#010101" stroke-width="2.126" stroke-miterlimit="10" x1="77.8" y1="8.8" x2="77.8" y2="132.8"/>
	<line fill="none" stroke="#010101" stroke-width="2.126" stroke-miterlimit="10" x1="85.9" y1="8.8" x2="85.9" y2="132.8"/>
	<line fill="none" stroke="#010101" stroke-width="2.126" stroke-miterlimit="10" x1="70.8" y1="8.2" x2="70.8" y2="133.5"/>
	<line fill="none" stroke="#010101" stroke-width="2.126" stroke-miterlimit="10" x1="47.4" y1="7.5" x2="47.4" y2="131.5"/>
	<line fill="none" stroke="#010101" stroke-width="2.126" stroke-miterlimit="10" x1="55.5" y1="7.5" x2="55.5" y2="131.5"/>
	<line fill="none" stroke="#010101" stroke-width="2.126" stroke-miterlimit="10" x1="39.7" y1="7.5" x2="39.7" y2="131.5"/>
	<rect x="2.1" y="2.1" fill="none" stroke="#010101" stroke-width="4.252" stroke-miterlimit="10" width="23.2" height="140.1"/>
	<rect x="2.1" y="130.7" fill="#010101" width="23.2" height="11.3"/>
	<rect x="1.9" y="81.2" fill="#010101" width="23.2" height="5.7"/>
	<line fill="none" stroke="#010101" stroke-width="2.126" stroke-miterlimit="10" x1="2.1" y1="5.7" x2="25.3" y2="5.7"/>
	<line fill="none" stroke="#010101" stroke-width="2.126" stroke-miterlimit="10" x1="2.1" y1="8.2" x2="25.3" y2="8.2"/>
	<line fill="none" stroke="#010101" stroke-width="2.126" stroke-miterlimit="10" x1="2.1" y1="10.8" x2="25.3" y2="10.8"/>
	<line fill="none" stroke="#010101" stroke-width="2.126" stroke-miterlimit="10" x1="2.1" y1="13.3" x2="25.3" y2="13.3"/>
	<line fill="none" stroke="#010101" stroke-width="2.126" stroke-miterlimit="10" x1="2.1" y1="16.1" x2="25.3" y2="16.1"/>
	<line fill="none" stroke="#010101" stroke-width="2.126" stroke-miterlimit="10" x1="2.1" y1="18.6" x2="25.3" y2="18.6"/>
	<line fill="none" stroke="#010101" stroke-width="2.126" stroke-miterlimit="10" x1="2.1" y1="21.3" x2="25.3" y2="21.3"/>
	<line fill="none" stroke="#010101" stroke-width="2.126" stroke-miterlimit="10" x1="2.1" y1="23.7" x2="25.3" y2="23.7"/>
	<line fill="none" stroke="#010101" stroke-width="2.126" stroke-miterlimit="10" x1="2.1" y1="26.3" x2="25.3" y2="26.3"/>
	<line fill="none" stroke="#010101" stroke-width="2.126" stroke-miterlimit="10" x1="2.1" y1="28.7" x2="25.3" y2="28.7"/>
	<line fill="none" stroke="#010101" stroke-width="2.126" stroke-miterlimit="10" x1="2.1" y1="31.4" x2="25.3" y2="31.4"/>
	<line fill="none" stroke="#010101" stroke-width="2.126" stroke-miterlimit="10" x1="2.1" y1="33.9" x2="25.3" y2="33.9"/>
	<line fill="none" stroke="#010101" stroke-width="2.126" stroke-miterlimit="10" x1="2.1" y1="36.7" x2="25.3" y2="36.7"/>
	<line fill="none" stroke="#010101" stroke-width="2.126" stroke-miterlimit="10" x1="2.1" y1="39.2" x2="25.3" y2="39.2"/>
	<line fill="none" stroke="#010101" stroke-width="2.126" stroke-miterlimit="10" x1="2.1" y1="41.9" x2="25.3" y2="41.9"/>
	<line fill="none" stroke="#010101" stroke-width="2.126" stroke-miterlimit="10" x1="2.1" y1="44.3" x2="25.3" y2="44.3"/>
	<line fill="none" stroke="#010101" stroke-width="2.126" stroke-miterlimit="10" x1="2.1" y1="47" x2="25.3" y2="47"/>
	<line fill="none" stroke="#010101" stroke-width="2.126" stroke-miterlimit="10" x1="2.1" y1="49.5" x2="25.3" y2="49.5"/>
	<line fill="none" stroke="#010101" stroke-width="2.126" stroke-miterlimit="10" x1="2.1" y1="52.2" x2="25.3" y2="52.2"/>
	<line fill="none" stroke="#010101" stroke-width="2.126" stroke-miterlimit="10" x1="2.1" y1="54.7" x2="25.3" y2="54.7"/>
	<line fill="none" stroke="#010101" stroke-width="2.126" stroke-miterlimit="10" x1="2.1" y1="57.5" x2="25.3" y2="57.5"/>
	<line fill="none" stroke="#010101" stroke-width="2.126" stroke-miterlimit="10" x1="2.1" y1="59.9" x2="25.3" y2="59.9"/>
	<line fill="none" stroke="#010101" stroke-width="2.126" stroke-miterlimit="10" x1="2.1" y1="62.6" x2="25.3" y2="62.6"/>
	<line fill="none" stroke="#010101" stroke-width="2.126" stroke-miterlimit="10" x1="1.9" y1="86.9" x2="25.1" y2="86.9"/>
	<line fill="none" stroke="#010101" stroke-width="2.126" stroke-miterlimit="10" x1="1.9" y1="89.4" x2="25.1" y2="89.4"/>
	<line fill="none" stroke="#010101" stroke-width="2.126" stroke-miterlimit="10" x1="1.9" y1="92.1" x2="25.1" y2="92.1"/>
	<line fill="none" stroke="#010101" stroke-width="2.126" stroke-miterlimit="10" x1="1.9" y1="94.5" x2="25.1" y2="94.5"/>
	<line fill="none" stroke="#010101" stroke-width="2.126" stroke-miterlimit="10" x1="1.9" y1="97.3" x2="25.1" y2="97.3"/>
	<line fill="none" stroke="#010101" stroke-width="2.126" stroke-miterlimit="10" x1="1.9" y1="99.8" x2="25.1" y2="99.8"/>
	<line fill="none" stroke="#010101" stroke-width="2.126" stroke-miterlimit="10" x1="1.9" y1="102.5" x2="25.1" y2="102.5"/>
	<line fill="none" stroke="#010101" stroke-width="2.126" stroke-miterlimit="10" x1="1.9" y1="105" x2="25.1" y2="105"/>
	<line fill="none" stroke="#010101" stroke-width="2.126" stroke-miterlimit="10" x1="1.9" y1="107.5" x2="25.1" y2="107.5"/>
	<line fill="none" stroke="#010101" stroke-width="2.126" stroke-miterlimit="10" x1="1.9" y1="110" x2="25.1" y2="110"/>
	<line fill="none" stroke="#010101" stroke-width="2.126" stroke-miterlimit="10" x1="1.9" y1="112.7" x2="25.1" y2="112.7"/>
	<line fill="none" stroke="#010101" stroke-width="2.126" stroke-miterlimit="10" x1="1.9" y1="115.1" x2="25.1" y2="115.1"/>
	<line fill="none" stroke="#010101" stroke-width="2.126" stroke-miterlimit="10" x1="1.9" y1="117.9" x2="25.1" y2="117.9"/>
	<line fill="none" stroke="#010101" stroke-width="2.126" stroke-miterlimit="10" x1="1.9" y1="120.4" x2="25.1" y2="120.4"/>
	<line fill="none" stroke="#010101" stroke-width="2.126" stroke-miterlimit="10" x1="1.9" y1="123.1" x2="25.1" y2="123.1"/>
	<line fill="none" stroke="#010101" stroke-width="2.126" stroke-miterlimit="10" x1="1.9" y1="125.6" x2="25.1" y2="125.6"/>
	<line fill="none" stroke="#010101" stroke-width="2.126" stroke-miterlimit="10" x1="1.9" y1="128.3" x2="25.1" y2="128.3"/>
	<line fill="none" stroke="#010101" stroke-width="2.126" stroke-miterlimit="10" x1="1.9" y1="130.7" x2="25.1" y2="130.7"/>
	<line fill="none" stroke="#010101" stroke-width="2.126" stroke-miterlimit="10" x1="2.1" y1="65.1" x2="25.3" y2="65.1"/>
	<line fill="none" stroke="#010101" stroke-width="2.126" stroke-miterlimit="10" x1="2.1" y1="67.8" x2="25.3" y2="67.8"/>
	<line fill="none" stroke="#010101" stroke-width="2.126" stroke-miterlimit="10" x1="2.1" y1="70.2" x2="25.3" y2="70.2"/>
	<line fill="none" stroke="#010101" stroke-width="2.126" stroke-miterlimit="10" x1="2.1" y1="72.9" x2="25.3" y2="72.9"/>
	<line fill="none" stroke="#010101" stroke-width="2.126" stroke-miterlimit="10" x1="2.1" y1="75.4" x2="25.3" y2="75.4"/>
	<line fill="none" stroke="#010101" stroke-width="2.126" stroke-miterlimit="10" x1="2.1" y1="78" x2="25.3" y2="78"/>
	<line fill="none" stroke="#010101" stroke-width="2.126" stroke-miterlimit="10" x1="2.1" y1="80.7" x2="25.3" y2="80.7"/>
	<line fill="none" stroke="#010101" stroke-width="2.126" stroke-miterlimit="10" x1="2.1" y1="83.2" x2="25.3" y2="83.2"/>
	<rect x="101.5" y="2.1" fill="none" stroke="#010101" stroke-width="4.252" stroke-miterlimit="10" width="23.2" height="140.1"/>
	<rect x="101.5" y="130.7" fill="#010101" width="23.2" height="11.3"/>
	<rect x="101.3" y="81.2" fill="#010101" width="23.2" height="5.7"/>
	<line fill="none" stroke="#010101" stroke-width="2.126" stroke-miterlimit="10" x1="101.5" y1="5.7" x2="124.7" y2="5.7"/>
	<line fill="none" stroke="#010101" stroke-width="2.126" stroke-miterlimit="10" x1="101.5" y1="8.2" x2="124.7" y2="8.2"/>
	<line fill="none" stroke="#010101" stroke-width="2.126" stroke-miterlimit="10" x1="101.5" y1="10.9" x2="124.7" y2="10.9"/>
	<line fill="none" stroke="#010101" stroke-width="2.126" stroke-miterlimit="10" x1="101.5" y1="13.3" x2="124.7" y2="13.3"/>
	<line fill="none" stroke="#010101" stroke-width="2.126" stroke-miterlimit="10" x1="101.5" y1="16.1" x2="124.7" y2="16.1"/>
	<line fill="none" stroke="#010101" stroke-width="2.126" stroke-miterlimit="10" x1="101.5" y1="18.6" x2="124.7" y2="18.6"/>
	<line fill="none" stroke="#010101" stroke-width="2.126" stroke-miterlimit="10" x1="101.5" y1="21.3" x2="124.7" y2="21.3"/>
	<line fill="none" stroke="#010101" stroke-width="2.126" stroke-miterlimit="10" x1="101.5" y1="23.8" x2="124.7" y2="23.8"/>
	<line fill="none" stroke="#010101" stroke-width="2.126" stroke-miterlimit="10" x1="101.5" y1="26.3" x2="124.7" y2="26.3"/>
	<line fill="none" stroke="#010101" stroke-width="2.126" stroke-miterlimit="10" x1="101.5" y1="28.8" x2="124.7" y2="28.8"/>
	<line fill="none" stroke="#010101" stroke-width="2.126" stroke-miterlimit="10" x1="101.5" y1="31.4" x2="124.7" y2="31.4"/>
	<line fill="none" stroke="#010101" stroke-width="2.126" stroke-miterlimit="10" x1="101.5" y1="33.9" x2="124.7" y2="33.9"/>
	<line fill="none" stroke="#010101" stroke-width="2.126" stroke-miterlimit="10" x1="101.5" y1="36.7" x2="124.7" y2="36.7"/>
	<line fill="none" stroke="#010101" stroke-width="2.126" stroke-miterlimit="10" x1="101.5" y1="39.2" x2="124.7" y2="39.2"/>
	<line fill="none" stroke="#010101" stroke-width="2.126" stroke-miterlimit="10" x1="101.5" y1="41.9" x2="124.7" y2="41.9"/>
	<line fill="none" stroke="#010101" stroke-width="2.126" stroke-miterlimit="10" x1="101.5" y1="44.3" x2="124.7" y2="44.3"/>
	<line fill="none" stroke="#010101" stroke-width="2.126" stroke-miterlimit="10" x1="101.5" y1="47" x2="124.7" y2="47"/>
	<line fill="none" stroke="#010101" stroke-width="2.126" stroke-miterlimit="10" x1="101.5" y1="49.5" x2="124.7" y2="49.5"/>
	<line fill="none" stroke="#010101" stroke-width="2.126" stroke-miterlimit="10" x1="101.5" y1="52.2" x2="124.7" y2="52.2"/>
	<line fill="none" stroke="#010101" stroke-width="2.126" stroke-miterlimit="10" x1="101.5" y1="54.7" x2="124.7" y2="54.7"/>
	<line fill="none" stroke="#010101" stroke-width="2.126" stroke-miterlimit="10" x1="101.5" y1="57.5" x2="124.7" y2="57.5"/>
	<line fill="none" stroke="#010101" stroke-width="2.126" stroke-miterlimit="10" x1="101.5" y1="59.9" x2="124.7" y2="59.9"/>
	<line fill="none" stroke="#010101" stroke-width="2.126" stroke-miterlimit="10" x1="101.5" y1="62.6" x2="124.7" y2="62.6"/>
	<line fill="none" stroke="#010101" stroke-width="2.126" stroke-miterlimit="10" x1="101.3" y1="86.9" x2="124.5" y2="86.9"/>
	<line fill="none" stroke="#010101" stroke-width="2.126" stroke-miterlimit="10" x1="101.3" y1="89.4" x2="124.5" y2="89.4"/>
	<line fill="none" stroke="#010101" stroke-width="2.126" stroke-miterlimit="10" x1="101.3" y1="92.1" x2="124.5" y2="92.1"/>
	<line fill="none" stroke="#010101" stroke-width="2.126" stroke-miterlimit="10" x1="101.3" y1="94.6" x2="124.5" y2="94.6"/>
	<line fill="none" stroke="#010101" stroke-width="2.126" stroke-miterlimit="10" x1="101.3" y1="97.4" x2="124.5" y2="97.4"/>
	<line fill="none" stroke="#010101" stroke-width="2.126" stroke-miterlimit="10" x1="101.3" y1="99.8" x2="124.5" y2="99.8"/>
	<line fill="none" stroke="#010101" stroke-width="2.126" stroke-miterlimit="10" x1="101.3" y1="102.5" x2="124.5" y2="102.5"/>
	<line fill="none" stroke="#010101" stroke-width="2.126" stroke-miterlimit="10" x1="101.3" y1="105" x2="124.5" y2="105"/>
	<line fill="none" stroke="#010101" stroke-width="2.126" stroke-miterlimit="10" x1="101.3" y1="107.5" x2="124.5" y2="107.5"/>
	<line fill="none" stroke="#010101" stroke-width="2.126" stroke-miterlimit="10" x1="101.3" y1="110" x2="124.5" y2="110"/>
	<line fill="none" stroke="#010101" stroke-width="2.126" stroke-miterlimit="10" x1="101.3" y1="112.7" x2="124.5" y2="112.7"/>
	<line fill="none" stroke="#010101" stroke-width="2.126" stroke-miterlimit="10" x1="101.3" y1="115.1" x2="124.5" y2="115.1"/>
	<line fill="none" stroke="#010101" stroke-width="2.126" stroke-miterlimit="10" x1="101.3" y1="117.9" x2="124.5" y2="117.9"/>
	<line fill="none" stroke="#010101" stroke-width="2.126" stroke-miterlimit="10" x1="101.3" y1="120.4" x2="124.5" y2="120.4"/>
	<line fill="none" stroke="#010101" stroke-width="2.126" stroke-miterlimit="10" x1="101.3" y1="123.1" x2="124.5" y2="123.1"/>
	<line fill="none" stroke="#010101" stroke-width="2.126" stroke-miterlimit="10" x1="101.3" y1="125.6" x2="124.5" y2="125.6"/>
	<line fill="none" stroke="#010101" stroke-width="2.126" stroke-miterlimit="10" x1="101.3" y1="128.3" x2="124.5" y2="128.3"/>
	<line fill="none" stroke="#010101" stroke-width="2.126" stroke-miterlimit="10" x1="101.3" y1="130.7" x2="124.5" y2="130.7"/>
	<line fill="none" stroke="#010101" stroke-width="2.126" stroke-miterlimit="10" x1="101.5" y1="65.1" x2="124.7" y2="65.1"/>
	<line fill="none" stroke="#010101" stroke-width="2.126" stroke-miterlimit="10" x1="101.5" y1="67.8" x2="124.7" y2="67.8"/>
	<line fill="none" stroke="#010101" stroke-width="2.126" stroke-miterlimit="10" x1="101.5" y1="70.2" x2="124.7" y2="70.2"/>
	<line fill="none" stroke="#010101" stroke-width="2.126" stroke-miterlimit="10" x1="101.5" y1="72.9" x2="124.7" y2="72.9"/>
	<line fill="none" stroke="#010101" stroke-width="2.126" stroke-miterlimit="10" x1="101.5" y1="75.4" x2="124.7" y2="75.4"/>
	<line fill="none" stroke="#010101" stroke-width="2.126" stroke-miterlimit="10" x1="101.5" y1="78" x2="124.7" y2="78"/>
	<line fill="none" stroke="#010101" stroke-width="2.126" stroke-miterlimit="10" x1="101.5" y1="80.7" x2="124.7" y2="80.7"/>
	<line fill="none" stroke="#010101" stroke-width="2.126" stroke-miterlimit="10" x1="101.5" y1="83.2" x2="124.7" y2="83.2"/>
	<rect x="21.6" y="136.4" fill="#040303" width="84" height="16.6"/>
	<rect x="33.8" y="33.5" fill="#010101" width="4.7" height="42.5"/>
	<rect x="41.2" y="33.5" fill="#010101" width="4.7" height="42.5"/>
	<rect x="48.8" y="33.4" fill="#010101" width="5.3" height="42.5"/>
	<rect x="56.8" y="33.5" fill="#010101" width="5.4" height="42.5"/>
	<rect x="65.1" y="33.5" fill="#010101" width="4.4" height="42.5"/>
	<rect x="72.3" y="33.5" fill="#010101" width="4.1" height="42.5"/>
	<rect x="79.1" y="33.5" fill="#010101" width="5.4" height="42.5"/>
	<rect x="87.3" y="33.5" fill="#010101" width="4.4" height="42.5"/>
	<rect x="33.7" y="82.5" fill="#010101" width="4.7" height="47.2"/>
	<rect x="41.2" y="82.5" fill="#010101" width="4.7" height="47.2"/>
	<rect x="48.7" y="82.4" fill="#010101" width="5.3" height="47.1"/>
	<rect x="56.8" y="82.5" fill="#010101" width="5.4" height="47.1"/>
	<rect x="65" y="82.5" fill="#010101" width="4.4" height="47.1"/>
	<rect x="72.2" y="82.5" fill="#010101" width="4.1" height="47.1"/>
	<rect x="79.1" y="82.5" fill="#010101" width="5.4" height="47.1"/>
	<rect x="87.2" y="82.5" fill="#010101" width="4.4" height="47.1"/>
	<rect x="33.7" y="17.5" fill="#010101" width="4.7" height="13.3"/>
	<polygon fill="#010101" points="45.9,30.7 41.2,30.7 45.9,18.4 	"/>
	<path fill="#010101" d="M62.2,18.4v12.3h-5.4V18.4V9.8c0,0,0.9-0.4,5.4-0.4V18.4z"/>
	<path fill="#010101" d="M69.4,18.4v12.3H65V18.4v-9c0,0,1.2-0.2,4.4,0.3"/>
	<path fill="#010101" d="M76.4,18.4v12.3h-4.1V18.4v-8.2c0,0,1.8,0,4.1,0.9V18.4z"/>
	<path fill="#010101" d="M84.6,18.4v12.3h-5.4V18.4v-6.5c0,0,3.1,0.8,5.4,2.1V18.4z"/>
	<path fill="#010101" d="M91.7,18.4v12.3h-4.4V18.4l0-3.4c0,0,3.1,1.7,4.4,2.5V18.4z"/>
	<path fill="#010101" d="M33.7,17.4c2.9-1.7,4.7-2.2,4.7-2.2v2.2H33.7z"/>
	<path fill="#010101" d="M45.9,18.3c0,0,0-4.9,0-6.2c-2,0.5-4.7,1.7-4.7,1.7l0,16.5"/>
	<path fill="#010101" d="M48.8,11.5c0,0,1.4-0.6,5.3-1.2v1.2"/>
	<polyline fill="#010101" points="54,11.5 48.8,11.5 48.8,12 48.8,30.7 54,30.7 54,12 	"/>
	<rect x="41.2" y="13.9" fill="#010101" width="4.7" height="16.9"/>
	<rect x="33.7" y="17.4" fill="#010101" width="4.7" height="13.4"/>
	<path fill="#010101" d="M27.9,168.3c3.9-8.4,45.5-23.3,70.8,0.9c0,43.1,0.3,121.9,0.3,121.9H27.9L27.9,168.3z"/>
	<path fill="#FFFEFE" d="M92.1,284.2h-59v-11.4V171c0,0,29.5-18.6,58.9,0.3L92.1,284.2z"/>
	<line fill="none" stroke="#010101" stroke-width="5.6693" stroke-miterlimit="10" x1="33.1" y1="233.2" x2="92.1" y2="233.2"/>
	<line fill="none" stroke="#010101" stroke-width="2.126" stroke-miterlimit="10" x1="33.1" y1="186" x2="92.1" y2="186"/>
	<line fill="none" stroke="#010101" stroke-width="2.126" stroke-miterlimit="10" x1="63.5" y1="162.1" x2="63.5" y2="286.8"/>
	<line fill="none" stroke="#010101" stroke-width="2.126" stroke-miterlimit="10" x1="77.8" y1="162.8" x2="77.8" y2="286.8"/>
	<line fill="none" stroke="#010101" stroke-width="2.126" stroke-miterlimit="10" x1="85.9" y1="162.8" x2="85.9" y2="286.8"/>
	<line fill="none" stroke="#010101" stroke-width="2.126" stroke-miterlimit="10" x1="70.8" y1="162.2" x2="70.8" y2="287.5"/>
	<line fill="none" stroke="#010101" stroke-width="2.126" stroke-miterlimit="10" x1="47.4" y1="161.5" x2="47.4" y2="285.5"/>
	<line fill="none" stroke="#010101" stroke-width="2.126" stroke-miterlimit="10" x1="55.5" y1="161.5" x2="55.5" y2="285.5"/>
	<line fill="none" stroke="#010101" stroke-width="2.126" stroke-miterlimit="10" x1="39.7" y1="161.5" x2="39.7" y2="285.5"/>
	<rect x="2.1" y="156.1" fill="none" stroke="#010101" stroke-width="4.252" stroke-miterlimit="10" width="23.2" height="140.1"/>
	<rect x="2.1" y="284.7" fill="#010101" width="23.2" height="11.3"/>
	<rect x="1.9" y="235.2" fill="#010101" width="23.2" height="5.7"/>
	<line fill="none" stroke="#010101" stroke-width="2.126" stroke-miterlimit="10" x1="2.1" y1="159.7" x2="25.3" y2="159.7"/>
	<line fill="none" stroke="#010101" stroke-width="2.126" stroke-miterlimit="10" x1="2.1" y1="162.1" x2="25.3" y2="162.1"/>
	<line fill="none" stroke="#010101" stroke-width="2.126" stroke-miterlimit="10" x1="2.1" y1="164.8" x2="25.3" y2="164.8"/>
	<line fill="none" stroke="#010101" stroke-width="2.126" stroke-miterlimit="10" x1="2.1" y1="167.3" x2="25.3" y2="167.3"/>
	<line fill="none" stroke="#010101" stroke-width="2.126" stroke-miterlimit="10" x1="2.1" y1="170.1" x2="25.3" y2="170.1"/>
	<line fill="none" stroke="#010101" stroke-width="2.126" stroke-miterlimit="10" x1="2.1" y1="172.6" x2="25.3" y2="172.6"/>
	<line fill="none" stroke="#010101" stroke-width="2.126" stroke-miterlimit="10" x1="2.1" y1="175.3" x2="25.3" y2="175.3"/>
	<line fill="none" stroke="#010101" stroke-width="2.126" stroke-miterlimit="10" x1="2.1" y1="177.7" x2="25.3" y2="177.7"/>
	<line fill="none" stroke="#010101" stroke-width="2.126" stroke-miterlimit="10" x1="2.1" y1="180.3" x2="25.3" y2="180.3"/>
	<line fill="none" stroke="#010101" stroke-width="2.126" stroke-miterlimit="10" x1="2.1" y1="182.7" x2="25.3" y2="182.7"/>
	<line fill="none" stroke="#010101" stroke-width="2.126" stroke-miterlimit="10" x1="2.1" y1="185.4" x2="25.3" y2="185.4"/>
	<line fill="none" stroke="#010101" stroke-width="2.126" stroke-miterlimit="10" x1="2.1" y1="187.9" x2="25.3" y2="187.9"/>
	<line fill="none" stroke="#010101" stroke-width="2.126" stroke-miterlimit="10" x1="2.1" y1="190.7" x2="25.3" y2="190.7"/>
	<line fill="none" stroke="#010101" stroke-width="2.126" stroke-miterlimit="10" x1="2.1" y1="193.2" x2="25.3" y2="193.2"/>
	<line fill="none" stroke="#010101" stroke-width="2.126" stroke-miterlimit="10" x1="2.1" y1="195.8" x2="25.3" y2="195.8"/>
	<line fill="none" stroke="#010101" stroke-width="2.126" stroke-miterlimit="10" x1="2.1" y1="198.3" x2="25.3" y2="198.3"/>
	<line fill="none" stroke="#010101" stroke-width="2.126" stroke-miterlimit="10" x1="2.1" y1="201" x2="25.3" y2="201"/>
	<line fill="none" stroke="#010101" stroke-width="2.126" stroke-miterlimit="10" x1="2.1" y1="203.5" x2="25.3" y2="203.5"/>
	<line fill="none" stroke="#010101" stroke-width="2.126" stroke-miterlimit="10" x1="2.1" y1="206.2" x2="25.3" y2="206.2"/>
	<line fill="none" stroke="#010101" stroke-width="2.126" stroke-miterlimit="10" x1="2.1" y1="208.6" x2="25.3" y2="208.6"/>
	<line fill="none" stroke="#010101" stroke-width="2.126" stroke-miterlimit="10" x1="2.1" y1="211.4" x2="25.3" y2="211.4"/>
	<line fill="none" stroke="#010101" stroke-width="2.126" stroke-miterlimit="10" x1="2.1" y1="213.9" x2="25.3" y2="213.9"/>
	<line fill="none" stroke="#010101" stroke-width="2.126" stroke-miterlimit="10" x1="2.1" y1="216.6" x2="25.3" y2="216.6"/>
	<line fill="none" stroke="#010101" stroke-width="2.126" stroke-miterlimit="10" x1="1.9" y1="240.9" x2="25.1" y2="240.9"/>
	<line fill="none" stroke="#010101" stroke-width="2.126" stroke-miterlimit="10" x1="1.9" y1="243.4" x2="25.1" y2="243.4"/>
	<line fill="none" stroke="#010101" stroke-width="2.126" stroke-miterlimit="10" x1="1.9" y1="246.1" x2="25.1" y2="246.1"/>
	<line fill="none" stroke="#010101" stroke-width="2.126" stroke-miterlimit="10" x1="1.9" y1="248.5" x2="25.1" y2="248.5"/>
	<line fill="none" stroke="#010101" stroke-width="2.126" stroke-miterlimit="10" x1="1.9" y1="251.3" x2="25.1" y2="251.3"/>
	<line fill="none" stroke="#010101" stroke-width="2.126" stroke-miterlimit="10" x1="1.9" y1="253.8" x2="25.1" y2="253.8"/>
	<line fill="none" stroke="#010101" stroke-width="2.126" stroke-miterlimit="10" x1="1.9" y1="256.5" x2="25.1" y2="256.5"/>
	<line fill="none" stroke="#010101" stroke-width="2.126" stroke-miterlimit="10" x1="1.9" y1="259" x2="25.1" y2="259"/>
	<line fill="none" stroke="#010101" stroke-width="2.126" stroke-miterlimit="10" x1="1.9" y1="261.5" x2="25.1" y2="261.5"/>
	<line fill="none" stroke="#010101" stroke-width="2.126" stroke-miterlimit="10" x1="1.9" y1="264" x2="25.1" y2="264"/>
	<line fill="none" stroke="#010101" stroke-width="2.126" stroke-miterlimit="10" x1="1.9" y1="266.6" x2="25.1" y2="266.6"/>
	<line fill="none" stroke="#010101" stroke-width="2.126" stroke-miterlimit="10" x1="1.9" y1="269.1" x2="25.1" y2="269.1"/>
	<line fill="none" stroke="#010101" stroke-width="2.126" stroke-miterlimit="10" x1="1.9" y1="271.9" x2="25.1" y2="271.9"/>
	<line fill="none" stroke="#010101" stroke-width="2.126" stroke-miterlimit="10" x1="1.9" y1="274.4" x2="25.1" y2="274.4"/>
	<line fill="none" stroke="#010101" stroke-width="2.126" stroke-miterlimit="10" x1="1.9" y1="277.1" x2="25.1" y2="277.1"/>
	<line fill="none" stroke="#010101" stroke-width="2.126" stroke-miterlimit="10" x1="1.9" y1="279.5" x2="25.1" y2="279.5"/>
	<line fill="none" stroke="#010101" stroke-width="2.126" stroke-miterlimit="10" x1="1.9" y1="282.2" x2="25.1" y2="282.2"/>
	<line fill="none" stroke="#010101" stroke-width="2.126" stroke-miterlimit="10" x1="1.9" y1="284.7" x2="25.1" y2="284.7"/>
	<line fill="none" stroke="#010101" stroke-width="2.126" stroke-miterlimit="10" x1="2.1" y1="219.1" x2="25.3" y2="219.1"/>
	<line fill="none" stroke="#010101" stroke-width="2.126" stroke-miterlimit="10" x1="2.1" y1="221.7" x2="25.3" y2="221.7"/>
	<line fill="none" stroke="#010101" stroke-width="2.126" stroke-miterlimit="10" x1="2.1" y1="224.2" x2="25.3" y2="224.2"/>
	<line fill="none" stroke="#010101" stroke-width="2.126" stroke-miterlimit="10" x1="2.1" y1="226.9" x2="25.3" y2="226.9"/>
	<line fill="none" stroke="#010101" stroke-width="2.126" stroke-miterlimit="10" x1="2.1" y1="229.4" x2="25.3" y2="229.4"/>
	<line fill="none" stroke="#010101" stroke-width="2.126" stroke-miterlimit="10" x1="2.1" y1="232" x2="25.3" y2="232"/>
	<line fill="none" stroke="#010101" stroke-width="2.126" stroke-miterlimit="10" x1="2.1" y1="234.7" x2="25.3" y2="234.7"/>
	<line fill="none" stroke="#010101" stroke-width="2.126" stroke-miterlimit="10" x1="2.1" y1="237.2" x2="25.3" y2="237.2"/>
	
		<rect x="101.5" y="156.1" fill="none" stroke="#010101" stroke-width="4.252" stroke-miterlimit="10" width="23.2" height="140.1"/>
	<rect x="101.5" y="284.7" fill="#010101" width="23.2" height="11.3"/>
	<rect x="101.3" y="235.2" fill="#010101" width="23.2" height="5.7"/>
	<line fill="none" stroke="#010101" stroke-width="2.126" stroke-miterlimit="10" x1="101.5" y1="159.7" x2="124.7" y2="159.7"/>
	<line fill="none" stroke="#010101" stroke-width="2.126" stroke-miterlimit="10" x1="101.5" y1="162.1" x2="124.7" y2="162.1"/>
	<line fill="none" stroke="#010101" stroke-width="2.126" stroke-miterlimit="10" x1="101.5" y1="164.8" x2="124.7" y2="164.8"/>
	<line fill="none" stroke="#010101" stroke-width="2.126" stroke-miterlimit="10" x1="101.5" y1="167.3" x2="124.7" y2="167.3"/>
	<line fill="none" stroke="#010101" stroke-width="2.126" stroke-miterlimit="10" x1="101.5" y1="170.1" x2="124.7" y2="170.1"/>
	<line fill="none" stroke="#010101" stroke-width="2.126" stroke-miterlimit="10" x1="101.5" y1="172.6" x2="124.7" y2="172.6"/>
	<line fill="none" stroke="#010101" stroke-width="2.126" stroke-miterlimit="10" x1="101.5" y1="175.3" x2="124.7" y2="175.3"/>
	<line fill="none" stroke="#010101" stroke-width="2.126" stroke-miterlimit="10" x1="101.5" y1="177.7" x2="124.7" y2="177.7"/>
	<line fill="none" stroke="#010101" stroke-width="2.126" stroke-miterlimit="10" x1="101.5" y1="180.3" x2="124.7" y2="180.3"/>
	<line fill="none" stroke="#010101" stroke-width="2.126" stroke-miterlimit="10" x1="101.5" y1="182.7" x2="124.7" y2="182.7"/>
	<line fill="none" stroke="#010101" stroke-width="2.126" stroke-miterlimit="10" x1="101.5" y1="185.4" x2="124.7" y2="185.4"/>
	<line fill="none" stroke="#010101" stroke-width="2.126" stroke-miterlimit="10" x1="101.5" y1="187.9" x2="124.7" y2="187.9"/>
	<line fill="none" stroke="#010101" stroke-width="2.126" stroke-miterlimit="10" x1="101.5" y1="190.7" x2="124.7" y2="190.7"/>
	<line fill="none" stroke="#010101" stroke-width="2.126" stroke-miterlimit="10" x1="101.5" y1="193.2" x2="124.7" y2="193.2"/>
	<line fill="none" stroke="#010101" stroke-width="2.126" stroke-miterlimit="10" x1="101.5" y1="195.9" x2="124.7" y2="195.9"/>
	<line fill="none" stroke="#010101" stroke-width="2.126" stroke-miterlimit="10" x1="101.5" y1="198.3" x2="124.7" y2="198.3"/>
	<line fill="none" stroke="#010101" stroke-width="2.126" stroke-miterlimit="10" x1="101.5" y1="201" x2="124.7" y2="201"/>
	<line fill="none" stroke="#010101" stroke-width="2.126" stroke-miterlimit="10" x1="101.5" y1="203.5" x2="124.7" y2="203.5"/>
	<line fill="none" stroke="#010101" stroke-width="2.126" stroke-miterlimit="10" x1="101.5" y1="206.2" x2="124.7" y2="206.2"/>
	<line fill="none" stroke="#010101" stroke-width="2.126" stroke-miterlimit="10" x1="101.5" y1="208.6" x2="124.7" y2="208.6"/>
	<line fill="none" stroke="#010101" stroke-width="2.126" stroke-miterlimit="10" x1="101.5" y1="211.5" x2="124.7" y2="211.5"/>
	<line fill="none" stroke="#010101" stroke-width="2.126" stroke-miterlimit="10" x1="101.5" y1="213.9" x2="124.7" y2="213.9"/>
	<line fill="none" stroke="#010101" stroke-width="2.126" stroke-miterlimit="10" x1="101.5" y1="216.6" x2="124.7" y2="216.6"/>
	<line fill="none" stroke="#010101" stroke-width="2.126" stroke-miterlimit="10" x1="101.3" y1="240.9" x2="124.5" y2="240.9"/>
	<line fill="none" stroke="#010101" stroke-width="2.126" stroke-miterlimit="10" x1="101.3" y1="243.4" x2="124.5" y2="243.4"/>
	<line fill="none" stroke="#010101" stroke-width="2.126" stroke-miterlimit="10" x1="101.3" y1="246.1" x2="124.5" y2="246.1"/>
	<line fill="none" stroke="#010101" stroke-width="2.126" stroke-miterlimit="10" x1="101.3" y1="248.5" x2="124.5" y2="248.5"/>
	<line fill="none" stroke="#010101" stroke-width="2.126" stroke-miterlimit="10" x1="101.3" y1="251.3" x2="124.5" y2="251.3"/>
	<line fill="none" stroke="#010101" stroke-width="2.126" stroke-miterlimit="10" x1="101.3" y1="253.8" x2="124.5" y2="253.8"/>
	<line fill="none" stroke="#010101" stroke-width="2.126" stroke-miterlimit="10" x1="101.3" y1="256.5" x2="124.5" y2="256.5"/>
	<line fill="none" stroke="#010101" stroke-width="2.126" stroke-miterlimit="10" x1="101.3" y1="259" x2="124.5" y2="259"/>
	<line fill="none" stroke="#010101" stroke-width="2.126" stroke-miterlimit="10" x1="101.3" y1="261.5" x2="124.5" y2="261.5"/>
	<line fill="none" stroke="#010101" stroke-width="2.126" stroke-miterlimit="10" x1="101.3" y1="264" x2="124.5" y2="264"/>
	<line fill="none" stroke="#010101" stroke-width="2.126" stroke-miterlimit="10" x1="101.3" y1="266.7" x2="124.5" y2="266.7"/>
	<line fill="none" stroke="#010101" stroke-width="2.126" stroke-miterlimit="10" x1="101.3" y1="269.1" x2="124.5" y2="269.1"/>
	<line fill="none" stroke="#010101" stroke-width="2.126" stroke-miterlimit="10" x1="101.3" y1="271.9" x2="124.5" y2="271.9"/>
	<line fill="none" stroke="#010101" stroke-width="2.126" stroke-miterlimit="10" x1="101.3" y1="274.4" x2="124.5" y2="274.4"/>
	<line fill="none" stroke="#010101" stroke-width="2.126" stroke-miterlimit="10" x1="101.3" y1="277.1" x2="124.5" y2="277.1"/>
	<line fill="none" stroke="#010101" stroke-width="2.126" stroke-miterlimit="10" x1="101.3" y1="279.6" x2="124.5" y2="279.6"/>
	<line fill="none" stroke="#010101" stroke-width="2.126" stroke-miterlimit="10" x1="101.3" y1="282.2" x2="124.5" y2="282.2"/>
	<line fill="none" stroke="#010101" stroke-width="2.126" stroke-miterlimit="10" x1="101.3" y1="284.7" x2="124.5" y2="284.7"/>
	<line fill="none" stroke="#010101" stroke-width="2.126" stroke-miterlimit="10" x1="101.5" y1="219.1" x2="124.7" y2="219.1"/>
	<line fill="none" stroke="#010101" stroke-width="2.126" stroke-miterlimit="10" x1="101.5" y1="221.7" x2="124.7" y2="221.7"/>
	<line fill="none" stroke="#010101" stroke-width="2.126" stroke-miterlimit="10" x1="101.5" y1="224.2" x2="124.7" y2="224.2"/>
	<line fill="none" stroke="#010101" stroke-width="2.126" stroke-miterlimit="10" x1="101.5" y1="226.9" x2="124.7" y2="226.9"/>
	<line fill="none" stroke="#010101" stroke-width="2.126" stroke-miterlimit="10" x1="101.5" y1="229.4" x2="124.7" y2="229.4"/>
	<line fill="none" stroke="#010101" stroke-width="2.126" stroke-miterlimit="10" x1="101.5" y1="232" x2="124.7" y2="232"/>
	<line fill="none" stroke="#010101" stroke-width="2.126" stroke-miterlimit="10" x1="101.5" y1="234.7" x2="124.7" y2="234.7"/>
	<line fill="none" stroke="#010101" stroke-width="2.126" stroke-miterlimit="10" x1="101.5" y1="237.2" x2="124.7" y2="237.2"/>
	<rect x="21.5" y="290.4" fill="#040303" width="84" height="16.6"/>
</g>
<g id="Window_7">
</g>
<g id="Window_8">
</g>
<g id="Window_9">
</g>
<g id="Window_10">
</g>
<g id="Window_11">
</g>
<g id="Window_12">
</g>
</svg>
