<?xml version="1.0" encoding="utf-8"?>
<!-- Generator: Adobe Illustrator 18.1.1, SVG Export Plug-In . SVG Version: 6.00 Build 0)  -->
<svg version="1.1" xmlns="http://www.w3.org/2000/svg" xmlns:xlink="http://www.w3.org/1999/xlink" x="0px" y="0px"
	 viewBox="0 0 84.2 307" enable-background="new 0 0 84.2 307" xml:space="preserve">
<g id="Window_1">
</g>
<g id="Window_2">
</g>
<g id="Window_3">
</g>
<g id="Window_4">
</g>
<g id="Window_5">
</g>
<g id="Window_6">
</g>
<g id="Window_7">
	<path fill="none" stroke="#010101" stroke-width="4.252" stroke-miterlimit="10" d="M70.8,22.5c-31-10.8-57.8,0-57.8,0v112.1h57.8
		C70.8,134.6,70.8,60.6,70.8,22.5z"/>
	<path fill="none" stroke="#010101" stroke-width="7.0866" stroke-miterlimit="10" d="M12.9,24c0,0,27.2-10.9,58.5,0"/>
	<line fill="none" stroke="#010101" stroke-width="4.252" stroke-miterlimit="10" x1="12.9" y1="82.7" x2="70.8" y2="82.7"/>
	<path fill="#010101" d="M0.9,10.1h9.5c0,0,5-0.2,9.8-2.3s15.3-2.6,22-2.6c6.6,0,17,0.5,21.8,2.6c4.8,2.1,9.8,2.3,9.8,2.3h9.5
		c0,0,0-1.4,0-2.6c1.2,0,0.9-2.4,0.9-2.4H76c0,0-2,0.1-5-1c-3-1-15.7-4.4-28.8-4.2C29.1-0.2,16.9,3.2,14,4.2s-5,1-5,1H0
		c0,0-0.2,2.4,0.9,2.4C0.9,8.6,0.9,10.1,0.9,10.1z"/>
	<path fill="#010101" d="M5.2,10.9h5.2c0,0,5-0.2,9.8-2.3s15.3-2.6,22-2.6c6.6,0,17,0.5,21.8,2.6c4.8,2.1,9.8,2.3,9.8,2.3h5.2
		c0,0-1.6,0.9-1.2,9H74c0,0-15.1-5.5-31.9-5.4c-16.9-0.1-31.7,5.4-31.7,5.4H6.4C6.8,11.8,5.2,10.9,5.2,10.9z"/>
	<line fill="none" stroke="#010101" stroke-width="2.126" stroke-miterlimit="10" x1="6.3" y1="138.7" x2="77.1" y2="138.7"/>
	<path fill="#010101" d="M74.7,140.3v2.1h-2.3c0,0-0.6,3-3.7,3.1c-3.1,0.1-26.4,0-26.4,0h-0.6c0,0-23.2,0.1-26.4,0
		c-3.1-0.1-3.7-3.1-3.7-3.1H9.3v-2.1H74.7z"/>
	<rect x="15.4" y="146.1" fill="#010101" width="9.4" height="6.9"/>
	<rect x="58.6" y="146.1" fill="#010101" width="9.4" height="6.9"/>
	<rect x="16.8" y="86.2" fill="#010101" width="50" height="44.5"/>
	<path fill="#010101" d="M66.7,27.5v52.1h-50V27.5C16.7,27.5,40.4,18.7,66.7,27.5z"/>
	<path fill="none" stroke="#010101" stroke-width="4.252" stroke-miterlimit="10" d="M70.8,176.5c-31-10.8-57.8,0-57.8,0v112.1h57.8
		C70.8,288.6,70.8,214.6,70.8,176.5z"/>
	<path fill="none" stroke="#010101" stroke-width="7.0866" stroke-miterlimit="10" d="M12.9,178c0,0,27.2-10.9,58.5,0"/>
	<line fill="none" stroke="#010101" stroke-width="4.252" stroke-miterlimit="10" x1="12.9" y1="236.7" x2="70.8" y2="236.7"/>
	<path fill="#010101" d="M0.9,164.1h9.5c0,0,5-0.2,9.8-2.3s15.3-2.6,22-2.6c6.6,0,17,0.5,21.8,2.6s9.8,2.3,9.8,2.3h9.5
		c0,0,0-1.4,0-2.6c1.2,0,0.9-2.4,0.9-2.4H76c0,0-2,0.1-5-1c-3-1-15.7-4.4-28.8-4.2c-13.1-0.2-25.3,3.2-28.2,4.2s-5,1-5,1H0
		c0,0-0.2,2.4,0.9,2.4C0.9,162.6,0.9,164.1,0.9,164.1z"/>
	<path fill="#010101" d="M5.2,164.9h5.2c0,0,5-0.2,9.8-2.3s15.3-2.6,22-2.6c6.6,0,17,0.5,21.8,2.6s9.8,2.3,9.8,2.3h5.2
		c0,0-1.6,0.9-1.2,9H74c0,0-15.1-5.5-31.9-5.4c-16.9-0.1-31.7,5.4-31.7,5.4H6.4C6.8,165.7,5.2,164.9,5.2,164.9z"/>
	<line fill="none" stroke="#010101" stroke-width="2.126" stroke-miterlimit="10" x1="6.3" y1="292.7" x2="77.1" y2="292.7"/>
	<path fill="#010101" d="M74.7,294.3v2.1h-2.3c0,0-0.6,3-3.7,3.1c-3.1,0.1-26.4,0-26.4,0h-0.6c0,0-23.2,0.1-26.4,0
		c-3.1-0.1-3.7-3.1-3.7-3.1H9.3v-2.1H74.7z"/>
	<rect x="15.4" y="300.1" fill="#010101" width="9.4" height="6.9"/>
	<rect x="58.6" y="300.1" fill="#010101" width="9.4" height="6.9"/>
</g>
<g id="Window_8">
</g>
<g id="Window_9">
</g>
<g id="Window_10">
</g>
<g id="Window_11">
</g>
<g id="Window_12">
</g>
</svg>
