<?xml version="1.0" encoding="utf-8"?>
<!-- Generator: Adobe Illustrator 18.1.1, SVG Export Plug-In . SVG Version: 6.00 Build 0)  -->
<svg version="1.1" xmlns="http://www.w3.org/2000/svg" xmlns:xlink="http://www.w3.org/1999/xlink" x="0px" y="0px"
	 viewBox="0 0 90 307" enable-background="new 0 0 90 307" xml:space="preserve">
<g id="Window_1">
</g>
<g id="Window_2">
</g>
<g id="Window_3">
</g>
<g id="Window_4">
</g>
<g id="Window_5">
</g>
<g id="Window_6">
</g>
<g id="Window_7">
</g>
<g id="Window_8">
</g>
<g id="Window_9">
</g>
<g id="Window_10">
</g>
<g id="Window_11">
	<polyline fill="none" stroke="#040303" stroke-width="8.5039" stroke-miterlimit="10" points="12.2,136.1 12.2,20.4 78.6,20.4 
		78.6,134.8 	"/>
	<line fill="none" stroke="#040303" stroke-width="4.252" stroke-miterlimit="10" x1="7.9" y1="134.8" x2="82.8" y2="134.8"/>
	<line fill="none" stroke="#040303" stroke-width="4.252" stroke-miterlimit="10" x1="20.8" y1="83.9" x2="70" y2="83.9"/>
	<polyline fill="none" stroke="#040303" stroke-width="4.252" stroke-miterlimit="10" points="20.8,136.1 20.8,29.4 70,29.4 
		70,134.1 	"/>
	<line fill="none" stroke="#040303" stroke-width="2.126" stroke-miterlimit="10" x1="22.3" y1="59.8" x2="68.8" y2="59.8"/>
	<line fill="none" stroke="#040303" stroke-width="2.126" stroke-miterlimit="10" x1="20.8" y1="109" x2="70" y2="109"/>
	<line fill="none" stroke="#040303" stroke-width="2.126" stroke-miterlimit="10" x1="38.5" y1="30.7" x2="38.5" y2="134.8"/>
	<line fill="none" stroke="#040303" stroke-width="2.126" stroke-miterlimit="10" x1="52.9" y1="30.7" x2="52.9" y2="134.8"/>
	<path fill="#010101" d="M40,137.6h50v1.3h-1.1c0,0-0.1,1.8-1.5,1.8H55.1h-1.5H3.7c-1.4,0-1.5-1.8-1.5-1.8H1.1v-1.3H40z"/>
	<rect x="5.2" y="141.2" fill="#010101" width="81.3" height="3.9"/>
	<rect x="6.8" y="145.6" fill="#010101" width="11.4" height="7.4"/>
	<rect x="74.4" y="145.6" fill="#010101" width="11.4" height="7.4"/>
	<path fill="#040303" d="M45.7,7.5h43.9v3.4h-2.2c0,0,0.5,3.7-1.6,3.7l-40.1,0l-41.8,0c-2.1,0-1.6-3.7-1.6-3.7H0V7.5H45.7z"/>
	<polygon fill="#040303" points="3.4,3.7 7.5,0 82,0 86.4,3.7 	"/>
	<polygon fill="#040303" points="2.5,4.3 0,6.8 89.6,6.8 86.9,4.3 	"/>
	<rect x="23.8" y="32.7" fill="#040303" width="12.5" height="25"/>
	<rect x="40.7" y="32.7" fill="#040303" width="10" height="25"/>
	<rect x="55.2" y="32.7" fill="#040303" width="11.5" height="25"/>
	<rect x="23.8" y="61.9" fill="#040303" width="12.5" height="18.9"/>
	<rect x="40.7" y="61.9" fill="#040303" width="10" height="18.9"/>
	<rect x="55.2" y="61.9" fill="#040303" width="11.5" height="18.9"/>
	<rect x="23.8" y="87" fill="#040303" width="12.5" height="20.1"/>
	<rect x="40.7" y="87" fill="#040303" width="10" height="20.1"/>
	<rect x="55.2" y="87" fill="#040303" width="11.5" height="20.1"/>
	<rect x="23.8" y="111" fill="#040303" width="12.5" height="20.8"/>
	<rect x="40.7" y="111.1" fill="#040303" width="10" height="20.6"/>
	<rect x="55.2" y="111.1" fill="#040303" width="11.5" height="20.6"/>
	<polyline fill="none" stroke="#040303" stroke-width="8.5039" stroke-miterlimit="10" points="12.2,290.1 12.2,174.4 78.6,174.4 
		78.6,288.8 	"/>
	<line fill="none" stroke="#040303" stroke-width="4.252" stroke-miterlimit="10" x1="8" y1="288.8" x2="82.8" y2="288.8"/>
	<line fill="none" stroke="#040303" stroke-width="4.252" stroke-miterlimit="10" x1="20.8" y1="237.9" x2="70" y2="237.9"/>
	<polyline fill="none" stroke="#040303" stroke-width="4.252" stroke-miterlimit="10" points="20.8,290.1 20.8,183.4 70,183.4 
		70,288.1 	"/>
	<line fill="none" stroke="#040303" stroke-width="2.126" stroke-miterlimit="10" x1="22.3" y1="213.8" x2="68.8" y2="213.8"/>
	<line fill="none" stroke="#040303" stroke-width="2.126" stroke-miterlimit="10" x1="20.8" y1="263" x2="70" y2="263"/>
	<line fill="none" stroke="#040303" stroke-width="2.126" stroke-miterlimit="10" x1="38.6" y1="184.7" x2="38.6" y2="288.8"/>
	<line fill="none" stroke="#040303" stroke-width="2.126" stroke-miterlimit="10" x1="52.9" y1="184.7" x2="52.9" y2="288.8"/>
	<path fill="#010101" d="M40,291.6h50v1.3h-1.1c0,0-0.1,1.8-1.5,1.8H55.1h-1.5H3.7c-1.4,0-1.5-1.8-1.5-1.8H1.1v-1.3H40z"/>
	<rect x="5.2" y="295.2" fill="#010101" width="81.3" height="3.9"/>
	<rect x="6.8" y="299.6" fill="#010101" width="11.4" height="7.4"/>
	<rect x="74.4" y="299.6" fill="#010101" width="11.4" height="7.4"/>
	<path fill="#040303" d="M45.7,161.5h43.9v3.4h-2.2c0,0,0.5,3.7-1.6,3.7l-40.1,0l-41.8,0c-2.1,0-1.6-3.7-1.6-3.7H0v-3.4H45.7z"/>
	<polygon fill="#040303" points="3.4,157.7 7.6,154 82,154 86.4,157.7 	"/>
	<polygon fill="#040303" points="2.5,158.3 0,160.8 89.6,160.8 86.9,158.3 	"/>
</g>
<g id="Window_12">
</g>
</svg>
